# Blender 4.4.0
# www.blender.org
mtllib ball.mtl
o 球
v 0.151662 0.101144 -0.073694
v 0.156375 0.035842 -0.113687
v 0.137281 -0.034917 -0.136371
v 0.119582 -0.068964 -0.140023
v 0.097288 -0.100361 -0.138295
v 0.042483 -0.150525 -0.119164
v 0.127892 0.148415 -0.016707
v 0.148369 0.123401 -0.037702
v 0.163144 0.093644 -0.057247
v 0.171650 0.060289 -0.074593
v 0.173559 0.024617 -0.089072
v 0.168799 -0.012001 -0.100128
v 0.157551 -0.048158 -0.107336
v 0.140249 -0.082464 -0.110419
v 0.117558 -0.113601 -0.109259
v 0.090348 -0.140373 -0.103900
v 0.059667 -0.161750 -0.094549
v 0.026692 -0.176911 -0.081563
v -0.007308 -0.185273 -0.065444
v -0.041027 -0.186516 -0.046809
v -0.073170 -0.180591 -0.026376
v 0.130873 0.146400 -0.010104
v 0.154215 0.119447 -0.024749
v 0.171632 0.087905 -0.038442
v 0.182453 0.052984 -0.050659
v 0.186262 0.016027 -0.060928
v 0.182913 -0.021545 -0.068857
v 0.172535 -0.058290 -0.074139
v 0.155526 -0.092795 -0.076571
v 0.132541 -0.123734 -0.076062
v 0.104462 -0.149917 -0.072629
v 0.072369 -0.170340 -0.066405
v 0.037495 -0.184216 -0.057630
v 0.001180 -0.191013 -0.046639
v -0.035181 -0.190469 -0.033856
v -0.070189 -0.182606 -0.019773
v 0.132687 0.145080 -0.002927
v 0.157775 0.116859 -0.010670
v 0.176799 0.084146 -0.018003
v 0.189029 0.048201 -0.024644
v 0.193995 0.010403 -0.030338
v 0.191505 -0.027795 -0.034867
v 0.181657 -0.064925 -0.038055
v 0.164827 -0.099560 -0.039781
v 0.141663 -0.130368 -0.039978
v 0.113055 -0.156167 -0.038639
v 0.080102 -0.175964 -0.035815
v 0.044071 -0.188999 -0.031615
v 0.006347 -0.194771 -0.026200
v -0.031622 -0.193058 -0.019777
v -0.068375 -0.183926 -0.012595
v 0.133266 0.144506 0.004549
v 0.158910 0.115734 0.003994
v 0.178447 0.082514 0.003286
v 0.191126 0.046123 0.002451
v 0.196461 0.007959 0.001523
v 0.194246 -0.030510 0.000535
v 0.184566 -0.067807 -0.000473
v 0.167793 -0.102499 -0.001462
v 0.144572 -0.133251 -0.002396
v 0.115795 -0.158882 -0.003237
v 0.082569 -0.178408 -0.003954
v 0.046169 -0.191077 -0.004519
v 0.007995 -0.196404 -0.004911
v -0.030486 -0.194183 -0.005113
v -0.067796 -0.184499 -0.005120
v 0.132586 0.144702 0.012036
v 0.157577 0.116117 0.018680
v 0.176512 0.083069 0.024606
v 0.188664 0.046830 0.029587
v 0.193566 0.008791 0.033430
v 0.191029 -0.029586 0.035989
v 0.181151 -0.066826 0.037165
v 0.164311 -0.101498 0.036913
v 0.141157 -0.132270 0.035242
v 0.112578 -0.157958 0.032217
v 0.079673 -0.177576 0.027954
v 0.043707 -0.190370 0.022616
v 0.006060 -0.195848 0.016409
v -0.031819 -0.193800 0.009572
v -0.068475 -0.184304 0.002367
v 0.102500 0.167726 0.004929
v 0.130675 0.145658 0.019246
v 0.153828 0.117992 0.032823
v 0.171070 0.085792 0.045138
v 0.181737 0.050295 0.055719
v 0.185420 0.012865 0.064159
v 0.181978 -0.025059 0.070133
v 0.171542 -0.062020 0.073412
v 0.154514 -0.096598 0.073870
v 0.131549 -0.127463 0.071489
v 0.103528 -0.153430 0.066360
v 0.071528 -0.173501 0.058682
v 0.036780 -0.186905 0.048748
v 0.000618 -0.193126 0.036941
v -0.035568 -0.191925 0.023715
v -0.070387 -0.183348 0.009577
v 0.127606 0.147338 0.025902
v 0.147807 0.121288 0.045879
v 0.162328 0.090577 0.064093
v 0.170611 0.056385 0.079844
v 0.172338 0.020027 0.092527
v 0.167441 -0.017101 0.101654
v 0.156110 -0.053572 0.106874
v 0.138780 -0.087985 0.107987
v 0.116117 -0.119016 0.104951
v 0.088991 -0.145473 0.097881
v 0.058445 -0.166340 0.087050
v 0.025654 -0.180815 0.072873
v -0.008124 -0.188341 0.055896
v -0.041589 -0.188629 0.036771
v -0.073456 -0.181668 0.016233
v 0.123496 0.149678 0.031748
v 0.139745 0.125878 0.057347
v 0.150624 0.097241 0.080742
v 0.155714 0.064867 0.101035
v 0.154821 0.030000 0.117444
v 0.147978 -0.006020 0.129340
v 0.135448 -0.041809 0.136266
v 0.117713 -0.075991 0.137955
v 0.095454 -0.107252 0.134343
v 0.069527 -0.134392 0.125568
v 0.040928 -0.156367 0.111967
v 0.010757 -0.172334 0.094064
v -0.019828 -0.181677 0.072546
v -0.049651 -0.184039 0.048239
v -0.077566 -0.179328 0.022079
v 0.118503 0.152588 0.036560
v 0.129951 0.131586 0.066787
v 0.136406 0.105527 0.094446
v 0.137618 0.075413 0.118476
v 0.133542 0.042400 0.137954
v 0.124334 0.007759 0.152129
v 0.110348 -0.027181 0.160459
v 0.092121 -0.061076 0.162622
v 0.070355 -0.092624 0.158536
v 0.045884 -0.120613 0.148357
v 0.019650 -0.143966 0.132477
v -0.007339 -0.161787 0.111506
v -0.034046 -0.173391 0.086250
v -0.059445 -0.178331 0.057679
v -0.082559 -0.176418 0.026892
v 0.112820 0.155955 0.040153
v 0.118803 0.138191 0.073834
v 0.120221 0.115117 0.104678
v 0.117019 0.087618 0.131499
v 0.109321 0.056753 0.153267
v 0.097420 0.023706 0.169144
v 0.081777 -0.010251 0.178522
v 0.062990 -0.043815 0.181039
v 0.041783 -0.075695 0.176599
v 0.018970 -0.104665 0.165372
v -0.004572 -0.129614 0.147790
v -0.027938 -0.149582 0.124528
v -0.050231 -0.163801 0.096481
v -0.070593 -0.171726 0.064727
v -0.088242 -0.173051 0.030485
v 0.106664 0.159651 0.042389
v 0.106729 0.145441 0.078220
v 0.102692 0.125642 0.111045
v 0.094709 0.101015 0.139602
v 0.083086 0.072505 0.162795
v 0.068270 0.041209 0.179732
v 0.050831 0.008330 0.189761
v 0.031438 -0.024869 0.192499
v 0.010837 -0.057113 0.187838
v -0.010180 -0.087162 0.175959
v -0.030806 -0.113862 0.157318
v -0.050249 -0.136185 0.132632
v -0.067760 -0.153276 0.102848
v -0.082667 -0.164476 0.069112
v -0.094398 -0.169355 0.032720
v 0.100273 0.163534 0.043181
v 0.094192 0.153057 0.079774
v 0.084491 0.136699 0.113302
v 0.071544 0.115087 0.142475
v 0.055847 0.089052 0.166173
v 0.038004 0.059596 0.183485
v 0.018700 0.027849 0.193745
v -0.001322 -0.004968 0.196561
v -0.021294 -0.037595 0.191822
v -0.040447 -0.068776 0.179712
v -0.058045 -0.097315 0.160696
v -0.073414 -0.122113 0.135504
v -0.085961 -0.142219 0.105105
v -0.095204 -0.156860 0.070667
v -0.100789 -0.165472 0.033513
v 0.093892 0.167453 0.042500
v 0.081675 0.160746 0.078438
v 0.066319 0.147861 0.111362
v 0.048415 0.129294 0.140006
v 0.028650 0.105758 0.163270
v 0.007784 0.078158 0.180259
v -0.013381 0.047555 0.190321
v -0.034032 0.015123 0.193069
v -0.053374 -0.017889 0.188398
v -0.070666 -0.050214 0.176486
v -0.085242 -0.080609 0.157793
v -0.096543 -0.107906 0.133035
v -0.104133 -0.131057 0.103165
v -0.107721 -0.149171 0.069331
v -0.107170 -0.161553 0.032832
v 0.087766 0.171260 0.040372
v 0.069658 0.168212 0.074263
v 0.048873 0.158701 0.105300
v 0.026211 0.143090 0.132291
v 0.002541 0.121981 0.154197
v -0.021227 0.096184 0.170178
v -0.044179 0.066690 0.179619
v -0.065433 0.034634 0.182158
v -0.084173 0.001247 0.177696
v -0.099677 -0.032188 0.166406
v -0.111352 -0.064386 0.148720
v -0.118747 -0.094110 0.125320
v -0.121579 -0.120217 0.097103
v -0.119738 -0.141704 0.065155
v -0.113296 -0.157746 0.030703
v 0.082130 0.174806 0.036877
v 0.058603 0.175169 0.067408
v 0.032825 0.168801 0.095349
v 0.005784 0.155945 0.119625
v -0.021478 0.137097 0.139304
v -0.047915 0.112980 0.153630
v -0.072511 0.084521 0.162052
v -0.094320 0.052814 0.164247
v -0.112505 0.019078 0.160129
v -0.126366 -0.015392 0.149858
v -0.135370 -0.049270 0.133828
v -0.139173 -0.081255 0.112655
v -0.137627 -0.110117 0.087152
v -0.130793 -0.134747 0.058301
v -0.118932 -0.154199 0.027209
v 0.077202 0.177957 0.032152
v 0.048936 0.181350 0.058138
v 0.018790 0.177773 0.081891
v -0.012079 0.167365 0.102497
v -0.042483 0.150525 0.119164
v -0.071254 0.127900 0.131251
v -0.097288 0.100361 0.138294
v -0.119582 0.068964 0.140023
v -0.137281 0.034917 0.136371
v -0.149705 -0.000471 0.127478
v -0.156375 -0.035842 0.113687
v -0.157036 -0.069835 0.095526
v -0.151662 -0.101144 0.073694
v -0.140460 -0.128567 0.049031
v -0.123860 -0.151049 0.022483
v 0.073170 0.180591 0.026376
v 0.041027 0.186516 0.046809
v 0.007308 0.185273 0.065444
v -0.026692 0.176911 0.081563
v -0.059667 0.161750 0.094549
v -0.090348 0.140373 0.103900
v -0.117558 0.113601 0.109259
v -0.140249 0.082464 0.110419
v -0.157551 0.048158 0.107336
v -0.168799 0.012001 0.100128
v -0.173559 -0.024617 0.089072
v -0.171650 -0.060289 0.074593
v -0.163144 -0.093644 0.057247
v -0.148369 -0.123401 0.037702
v -0.127892 -0.148415 0.016707
v 0.070189 0.182606 0.019773
v 0.035181 0.190469 0.033856
v -0.001180 0.191013 0.046639
v -0.037495 0.184216 0.057630
v -0.072369 0.170340 0.066405
v -0.104462 0.149917 0.072629
v -0.132541 0.123734 0.076062
v -0.155526 0.092795 0.076571
v -0.172535 0.058290 0.074139
v -0.182913 0.021545 0.068857
v -0.186262 -0.016027 0.060928
v -0.182452 -0.052984 0.050659
v -0.171632 -0.087905 0.038442
v -0.154215 -0.119447 0.024749
v -0.130873 -0.146400 0.010104
v 0.068375 0.183926 0.012595
v 0.031622 0.193058 0.019777
v -0.006347 0.194771 0.026200
v -0.044071 0.188999 0.031615
v -0.080102 0.175964 0.035815
v -0.113055 0.156167 0.038639
v -0.141663 0.130368 0.039978
v -0.164827 0.099560 0.039781
v -0.181656 0.064925 0.038055
v -0.191505 0.027795 0.034867
v -0.193995 -0.010403 0.030338
v -0.189029 -0.048201 0.024644
v -0.176799 -0.084146 0.018003
v -0.157775 -0.116859 0.010670
v -0.132687 -0.145080 0.002927
v 0.067796 0.184499 0.005120
v 0.030486 0.194183 0.005113
v -0.007995 0.196404 0.004911
v -0.046169 0.191077 0.004519
v -0.082568 0.178408 0.003954
v -0.115795 0.158882 0.003237
v -0.144572 0.133251 0.002396
v -0.167793 0.102498 0.001462
v -0.184566 0.067807 0.000473
v -0.194246 0.030510 -0.000535
v -0.196461 -0.007959 -0.001523
v -0.191126 -0.046123 -0.002451
v -0.178447 -0.082514 -0.003286
v -0.158910 -0.115734 -0.003994
v -0.133266 -0.144506 -0.004549
v -0.102500 -0.167726 -0.004929
v 0.068475 0.184304 -0.002367
v 0.031819 0.193800 -0.009572
v -0.006060 0.195848 -0.016409
v -0.043707 0.190370 -0.022616
v -0.079673 0.177576 -0.027954
v -0.112578 0.157958 -0.032217
v -0.141157 0.132270 -0.035242
v -0.164311 0.101498 -0.036913
v -0.181150 0.066826 -0.037165
v -0.191029 0.029586 -0.035989
v -0.193566 -0.008791 -0.033430
v -0.188664 -0.046830 -0.029587
v -0.176512 -0.083069 -0.024606
v -0.157577 -0.116117 -0.018680
v -0.132586 -0.144702 -0.012036
v 0.070387 0.183348 -0.009577
v 0.035568 0.191925 -0.023715
v -0.000618 0.193126 -0.036941
v -0.036780 0.186905 -0.048748
v -0.071528 0.173501 -0.058682
v -0.103528 0.153430 -0.066360
v -0.131549 0.127463 -0.071489
v -0.154514 0.096598 -0.073870
v -0.171542 0.062020 -0.073412
v -0.181978 0.025059 -0.070133
v -0.185420 -0.012865 -0.064159
v -0.181737 -0.050295 -0.055719
v -0.171070 -0.085792 -0.045138
v -0.153828 -0.117992 -0.032823
v -0.130675 -0.145658 -0.019246
v 0.073456 0.181668 -0.016233
v 0.041589 0.188629 -0.036771
v 0.008124 0.188341 -0.055896
v -0.025654 0.180815 -0.072873
v -0.058445 0.166340 -0.087050
v -0.088991 0.145473 -0.097881
v -0.116117 0.119016 -0.104951
v -0.138780 0.087985 -0.107987
v -0.156110 0.053572 -0.106874
v -0.167441 0.017101 -0.101654
v -0.172338 -0.020027 -0.092527
v -0.170611 -0.056385 -0.079844
v -0.162328 -0.090577 -0.064093
v -0.147807 -0.121288 -0.045879
v -0.127606 -0.147338 -0.025902
v 0.077566 0.179328 -0.022079
v 0.049651 0.184039 -0.048239
v 0.019828 0.181677 -0.072546
v -0.010757 0.172333 -0.094064
v -0.040928 0.156367 -0.111967
v -0.069527 0.134392 -0.125568
v -0.095454 0.107252 -0.134343
v -0.117713 0.075991 -0.137955
v -0.135448 0.041809 -0.136266
v -0.147978 0.006020 -0.129340
v -0.154821 -0.030000 -0.117444
v -0.155714 -0.064867 -0.101035
v -0.150624 -0.097241 -0.080742
v -0.139745 -0.125878 -0.057347
v -0.123495 -0.149678 -0.031748
v 0.082559 0.176418 -0.026892
v 0.059445 0.178331 -0.057679
v 0.034046 0.173391 -0.086249
v 0.007339 0.161787 -0.111506
v -0.019650 0.143966 -0.132477
v -0.045884 0.120613 -0.148357
v -0.070354 0.092624 -0.158536
v -0.092121 0.061076 -0.162622
v -0.110348 0.027181 -0.160459
v -0.124334 -0.007759 -0.152129
v -0.133542 -0.042400 -0.137954
v -0.137618 -0.075413 -0.118476
v -0.136406 -0.105527 -0.094446
v -0.129951 -0.131586 -0.066787
v -0.118503 -0.152588 -0.036560
v 0.088242 0.173051 -0.030485
v 0.070593 0.171726 -0.064727
v 0.050231 0.163801 -0.096481
v 0.027938 0.149582 -0.124528
v 0.004572 0.129614 -0.147790
v -0.018970 0.104665 -0.165372
v -0.041783 0.075694 -0.176599
v -0.062990 0.043815 -0.181039
v -0.081777 0.010251 -0.178522
v -0.097420 -0.023706 -0.169144
v -0.109320 -0.056753 -0.153267
v -0.117019 -0.087618 -0.131499
v -0.120221 -0.115117 -0.104678
v -0.118803 -0.138191 -0.073834
v -0.112820 -0.155955 -0.040153
v 0.094398 0.169355 -0.032720
v 0.082667 0.164476 -0.069112
v 0.067760 0.153276 -0.102848
v 0.050249 0.136185 -0.132632
v 0.030806 0.113862 -0.157318
v 0.010180 0.087162 -0.175959
v -0.010837 0.057113 -0.187838
v -0.031438 0.024869 -0.192498
v -0.050831 -0.008330 -0.189761
v -0.068270 -0.041209 -0.179732
v -0.083086 -0.072505 -0.162795
v -0.094709 -0.101015 -0.139602
v -0.102692 -0.125642 -0.111045
v -0.106729 -0.145441 -0.078220
v -0.106664 -0.159651 -0.042389
v 0.100789 0.165472 -0.033513
v 0.095204 0.156860 -0.070667
v 0.085961 0.142219 -0.105105
v 0.073414 0.122113 -0.135504
v 0.058046 0.097315 -0.160696
v 0.040447 0.068776 -0.179712
v 0.021294 0.037595 -0.191822
v 0.001322 0.004968 -0.196561
v -0.018700 -0.027849 -0.193745
v -0.038004 -0.059596 -0.183485
v -0.055847 -0.089052 -0.166173
v -0.071544 -0.115087 -0.142475
v -0.084491 -0.136699 -0.113302
v -0.094192 -0.153057 -0.079774
v -0.100273 -0.163534 -0.043181
v 0.107170 0.161553 -0.032832
v 0.107721 0.149171 -0.069330
v 0.104133 0.131057 -0.103165
v 0.096543 0.107906 -0.133035
v 0.085242 0.080609 -0.157793
v 0.070666 0.050214 -0.176486
v 0.053374 0.017889 -0.188398
v 0.034032 -0.015124 -0.193069
v 0.013381 -0.047555 -0.190321
v -0.007784 -0.078158 -0.180259
v -0.028650 -0.105758 -0.163269
v -0.048415 -0.129294 -0.140006
v -0.066319 -0.147861 -0.111362
v -0.081675 -0.160746 -0.078438
v -0.093892 -0.167453 -0.042500
v 0.113296 0.157746 -0.030703
v 0.119738 0.141704 -0.065155
v 0.121579 0.120217 -0.097103
v 0.118747 0.094110 -0.125320
v 0.111352 0.064386 -0.148720
v 0.099677 0.032188 -0.166406
v 0.084173 -0.001247 -0.177696
v 0.065433 -0.034634 -0.182158
v 0.044179 -0.066690 -0.179619
v 0.021227 -0.096184 -0.170178
v -0.002541 -0.121981 -0.154197
v -0.026211 -0.143090 -0.132290
v -0.048873 -0.158701 -0.105300
v -0.069658 -0.168212 -0.074263
v -0.087766 -0.171260 -0.040372
v 0.118932 0.154199 -0.027209
v 0.130793 0.134747 -0.058301
v 0.137627 0.110117 -0.087152
v 0.139173 0.081255 -0.112655
v 0.135370 0.049270 -0.133828
v 0.126366 0.015392 -0.149858
v 0.112505 -0.019078 -0.160129
v 0.094320 -0.052814 -0.164246
v 0.072511 -0.084521 -0.162052
v 0.047915 -0.112980 -0.153630
v 0.021478 -0.137097 -0.139304
v -0.005784 -0.155945 -0.119625
v -0.032825 -0.168801 -0.095349
v -0.058603 -0.175169 -0.067408
v -0.082130 -0.174806 -0.036877
v 0.123860 0.151049 -0.022483
v 0.140460 0.128567 -0.049031
v 0.157036 0.069835 -0.095526
v 0.149705 0.000471 -0.127478
v 0.071254 -0.127900 -0.131251
v 0.012079 -0.167365 -0.102497
v -0.018790 -0.177773 -0.081891
v -0.048936 -0.181350 -0.058138
v -0.077202 -0.177957 -0.032152
vn 0.8440 0.2399 -0.4798
vn 0.0202 -0.9043 -0.4265
vn 0.8310 0.0590 -0.5532
vn -0.1451 -0.9346 -0.3249
vn 0.7862 -0.1239 -0.6054
vn -0.3051 -0.9288 -0.2106
vn 0.7116 -0.3019 -0.6344
vn 0.5841 0.8108 -0.0381
vn -0.4534 -0.8870 -0.0880
vn 0.6099 -0.4683 -0.6393
vn 0.6922 0.7031 -0.1626
vn 0.4849 -0.6169 -0.6199
vn 0.7734 0.5684 -0.2807
vn 0.3413 -0.7422 -0.5767
vn 0.8246 0.4119 -0.3878
vn 0.1845 -0.8393 -0.5115
vn 0.4224 -0.7960 -0.4336
vn 0.8830 0.3732 -0.2846
vn 0.2556 -0.8864 -0.3859
vn 0.9151 0.1927 -0.3542
vn 0.0787 -0.9430 -0.3233
vn 0.9120 0.0052 -0.4101
vn -0.1016 -0.9634 -0.2482
vn 0.8742 -0.1822 -0.4502
vn -0.2783 -0.9465 -0.1633
vn 0.8030 -0.3625 -0.4731
vn 0.5932 0.8048 -0.0221
vn -0.4443 -0.8930 -0.0720
vn 0.7013 -0.5289 -0.4780
vn 0.7190 0.6854 -0.1153
vn 0.5729 -0.6752 -0.4647
vn 0.8168 0.5396 -0.2040
vn -0.2600 -0.9593 -0.1107
vn 0.8655 -0.4059 -0.2934
vn 0.5994 0.8005 -0.0043
vn -0.4381 -0.8973 -0.0542
vn 0.7638 -0.5724 -0.2983
vn 0.7373 0.6726 -0.0627
vn 0.6330 -0.7171 -0.2919
vn 0.8466 0.5189 -0.1186
vn 0.4779 -0.8345 -0.2742
vn 0.9230 0.3454 -0.1698
vn 0.3042 -0.9203 -0.2461
vn 0.9637 0.1589 -0.2144
vn 0.1186 -0.9708 -0.2085
vn 0.9675 -0.0333 -0.2507
vn -0.0719 -0.9840 -0.1628
vn 0.9343 -0.2240 -0.2774
vn 0.3285 -0.9395 -0.0975
vn 0.9880 0.1397 -0.0658
vn 0.1385 -0.9866 -0.0864
vn 0.9952 -0.0552 -0.0813
vn -0.0571 -0.9958 -0.0719
vn 0.9643 -0.2477 -0.0936
vn -0.2508 -0.9665 -0.0547
vn 0.8967 -0.4306 -0.1024
vn 0.6025 0.7980 0.0146
vn -0.4351 -0.8997 -0.0353
vn 0.7950 -0.5970 -0.1073
vn 0.7464 0.6654 -0.0067
vn 0.6630 -0.7408 -0.1081
vn 0.8614 0.5072 -0.0278
vn 0.5055 -0.8564 -0.1048
vn 0.9429 0.3296 -0.0477
vn 0.6023 0.7975 0.0339
vn -0.4352 -0.9002 -0.0160
vn 0.7937 -0.6020 0.0877
vn 0.7461 0.6640 0.0504
vn 0.6617 -0.7455 0.0795
vn 0.8608 0.5048 0.0649
vn 0.5044 -0.8608 0.0682
vn 0.9421 0.3265 0.0770
vn 0.3275 -0.9433 0.0543
vn 0.9870 0.1359 0.0860
vn 0.1377 -0.9897 0.0383
vn 0.9940 -0.0596 0.0917
vn -0.0577 -0.9981 0.0208
vn 0.9630 -0.2525 0.0940
vn -0.2512 -0.9679 0.0024
vn 0.8954 -0.4356 0.0926
vn 0.9607 0.1475 0.2351
vn 0.1161 -0.9801 0.1608
vn 0.9640 -0.0463 0.2617
vn -0.0738 -0.9910 0.1119
vn 0.9305 -0.2380 0.2782
vn -0.2611 -0.9635 0.0586
vn 0.8616 -0.4205 0.2842
vn 0.5990 0.7990 0.0528
vn -0.4385 -0.8987 0.0029
vn 0.7599 -0.5870 0.2793
vn 0.7362 0.6684 0.1065
vn 0.6292 -0.7311 0.2637
vn 0.8447 0.5120 0.1560
vn 0.4744 -0.8475 0.2381
vn 0.9205 0.3361 0.1994
vn 0.3012 -0.9316 0.2034
vn 0.6950 -0.5526 0.4600
vn 0.7171 0.6784 0.1595
vn 0.5668 -0.6980 0.4376
vn 0.8138 0.5283 0.2420
vn 0.4168 -0.8170 0.3985
vn 0.8790 0.3580 0.3150
vn 0.2507 -0.9049 0.3440
vn 0.9102 0.1743 0.3758
vn 0.0746 -0.9582 0.2763
vn 0.9064 -0.0158 0.4220
vn -0.1046 -0.9746 0.1978
vn 0.8681 -0.2050 0.4521
vn -0.2801 -0.9535 0.1115
vn 0.7967 -0.3862 0.4649
vn 0.5926 0.8024 0.0707
vn -0.4449 -0.8953 0.0208
vn 0.0148 -0.9247 0.3805
vn 0.8234 0.0307 0.5666
vn -0.1491 -0.9497 0.2753
vn 0.7781 -0.1546 0.6089
vn -0.3076 -0.9381 0.1593
vn 0.7031 -0.3338 0.6279
vn 0.5833 0.8076 0.0868
vn -0.4542 -0.8901 0.0369
vn 0.6014 -0.5002 0.6230
vn 0.6897 0.6938 0.2072
vn 0.4768 -0.6476 0.5944
vn 0.7693 0.5532 0.3194
vn 0.3338 -0.7705 0.5430
vn 0.8191 0.3915 0.4192
vn 0.1779 -0.8641 0.4709
vn 0.8374 0.2151 0.5026
vn 0.6550 0.7138 0.2479
vn 0.3626 -0.5818 0.7280
vn 0.7129 0.5858 0.3855
vn 0.2285 -0.7098 0.6663
vn 0.7433 0.4353 0.5080
vn 0.0855 -0.8108 0.5790
vn 0.7450 0.2683 0.6107
vn -0.0611 -0.8809 0.4693
vn 0.7182 0.0914 0.6898
vn -0.2055 -0.9172 0.3413
vn 0.6639 -0.0888 0.7425
vn -0.3423 -0.9181 0.2000
vn 0.5845 -0.2653 0.7668
vn 0.5716 0.8144 0.1006
vn -0.4660 -0.8834 0.0507
vn 0.4828 -0.4318 0.7619
vn 0.5947 0.1640 0.7870
vn -0.2717 -0.8783 0.3934
vn 0.5301 -0.0101 0.8479
vn -0.3831 -0.8941 0.2321
vn 0.4453 -0.1835 0.8764
vn 0.5578 0.8225 0.1114
vn -0.4797 -0.8753 0.0615
vn 0.3436 -0.3499 0.8715
vn 0.6142 0.7378 0.2800
vn 0.2288 -0.5031 0.8334
vn 0.6468 0.6247 0.4376
vn 0.1051 -0.6372 0.7635
vn 0.6543 0.4876 0.5780
vn -0.0228 -0.7472 0.6643
vn 0.6367 0.3320 0.6960
vn -0.1500 -0.8286 0.5393
vn 0.0803 -0.4145 0.9065
vn 0.5734 0.6684 0.4737
vn -0.0318 -0.5555 0.8309
vn 0.5557 0.5464 0.6266
vn -0.1429 -0.6755 0.7234
vn 0.5166 0.4037 0.7551
vn -0.2487 -0.7698 0.5879
vn 0.4578 0.2457 0.8544
vn -0.3451 -0.8345 0.4295
vn 0.3816 0.0785 0.9210
vn -0.4283 -0.8671 0.2543
vn 0.2910 -0.0915 0.9523
vn 0.5425 0.8316 0.1189
vn -0.4950 -0.8661 0.0691
vn 0.1893 -0.2579 0.9475
vn 0.5690 0.7648 0.3023
vn -0.4228 -0.7876 0.4483
vn 0.2243 0.1735 0.9589
vn -0.4762 -0.8382 0.2659
vn 0.1274 0.0073 0.9918
vn 0.5263 0.8414 0.1229
vn -0.5112 -0.8564 0.0730
vn 0.0257 -0.1591 0.9869
vn 0.5211 0.7937 0.3138
vn -0.0770 -0.3195 0.9444
vn 0.4957 0.7154 0.4925
vn -0.1769 -0.4679 0.8659
vn 0.4511 0.6096 0.6518
vn -0.2701 -0.5986 0.7541
vn 0.3893 0.4805 0.7858
vn -0.3532 -0.7066 0.6131
vn 0.3128 0.3333 0.8894
vn -0.3246 -0.3777 0.8672
vn 0.3447 0.6746 0.6527
vn -0.3997 -0.5195 0.7552
vn 0.2598 0.5597 0.7869
vn -0.4597 -0.6416 0.6141
vn 0.1651 0.4235 0.8907
vn -0.5020 -0.7392 0.4490
vn 0.0642 0.2714 0.9603
vn -0.5250 -0.8084 0.2663
vn -0.0391 0.1090 0.9933
vn 0.5099 0.8514 0.1230
vn -0.5277 -0.8463 0.0731
vn -0.1408 -0.0574 0.9884
vn 0.4723 0.8235 0.3143
vn -0.2371 -0.2217 0.9458
vn 0.4165 0.7638 0.4932
vn -0.5727 -0.7789 0.2556
vn -0.2021 0.2097 0.9566
vn 0.4937 0.8614 0.1194
vn -0.5438 -0.8363 0.0695
vn -0.3038 0.0433 0.9518
vn 0.4245 0.8530 0.3035
vn -0.3940 -0.1248 0.9106
vn 0.3390 0.8116 0.4757
vn -0.4692 -0.2884 0.8347
vn 0.2405 0.7390 0.6293
vn -0.5266 -0.4411 0.7267
vn 0.1329 0.6381 0.7584
vn -0.5639 -0.5772 0.5907
vn 0.0204 0.5128 0.8582
vn -0.5795 -0.6913 0.4316
vn -0.0926 0.3682 0.9251
vn 0.1425 0.8003 0.5825
vn -0.6459 -0.3665 0.6697
vn 0.0136 0.7126 0.7014
vn -0.6619 -0.5159 0.5438
vn -0.1156 0.5979 0.7932
vn -0.6524 -0.6458 0.3967
vn -0.2401 0.4604 0.8546
vn -0.6177 -0.7508 0.2341
vn -0.3554 0.3056 0.8833
vn 0.4786 0.8709 0.1121
vn -0.5590 -0.8269 0.0622
vn -0.4571 0.1392 0.8785
vn 0.3796 0.8811 0.2821
vn -0.5414 -0.0326 0.8401
vn 0.2661 0.8572 0.4409
vn -0.6052 -0.2033 0.7697
vn -0.4931 0.3929 0.7762
vn 0.4649 0.8795 0.1015
vn -0.5726 -0.8182 0.0516
vn -0.5948 0.2265 0.7713
vn 0.3393 0.9067 0.2507
vn -0.6739 0.0514 0.7370
vn 0.2006 0.8987 0.3900
vn -0.7274 -0.1259 0.6746
vn 0.0544 0.8561 0.5140
vn -0.7531 -0.2986 0.5863
vn -0.0936 0.7806 0.6180
vn -0.7499 -0.4601 0.4753
vn -0.2377 0.6753 0.6982
vn -0.7179 -0.6042 0.3458
vn -0.3726 0.5444 0.7515
vn -0.6580 -0.7252 0.2027
vn -0.8440 -0.2399 0.4798
vn -0.1845 0.8393 0.5115
vn -0.8246 -0.4119 0.3878
vn -0.3413 0.7422 0.5767
vn -0.7734 -0.5684 0.2807
vn -0.4849 0.6169 0.6199
vn -0.6922 -0.7031 0.1626
vn -0.6099 0.4683 0.6393
vn 0.4534 0.8870 0.0880
vn -0.5841 -0.8108 0.0381
vn -0.7116 0.3019 0.6344
vn 0.3051 0.9288 0.2106
vn -0.7862 0.1239 0.6054
vn 0.1451 0.9346 0.3249
vn -0.8310 -0.0590 0.5532
vn -0.0202 0.9043 0.4265
vn 0.4443 0.8930 0.0720
vn -0.5932 -0.8048 0.0221
vn -0.8030 0.3625 0.4731
vn 0.2783 0.9465 0.1633
vn -0.8742 0.1822 0.4502
vn 0.1016 0.9634 0.2482
vn -0.9120 -0.0052 0.4101
vn -0.0787 0.9430 0.3233
vn -0.9151 -0.1927 0.3542
vn -0.2556 0.8864 0.3859
vn -0.8830 -0.3732 0.2846
vn -0.4224 0.7960 0.4336
vn -0.8168 -0.5396 0.2040
vn -0.5729 0.6752 0.4647
vn -0.7190 -0.6854 0.1153
vn -0.7013 0.5289 0.4780
vn -0.3042 0.9203 0.2461
vn -0.9230 -0.3454 0.1698
vn -0.4779 0.8345 0.2742
vn -0.8466 -0.5189 0.1186
vn -0.6330 0.7170 0.2919
vn -0.7373 -0.6726 0.0627
vn -0.7638 0.5724 0.2983
vn 0.4381 0.8973 0.0542
vn -0.5994 -0.8005 0.0043
vn -0.8655 0.4059 0.2934
vn 0.2600 0.9593 0.1107
vn -0.9343 0.2240 0.2774
vn 0.0719 0.9840 0.1628
vn -0.9675 0.0333 0.2507
vn -0.1186 0.9708 0.2085
vn -0.9637 -0.1589 0.2144
vn -0.8967 0.4306 0.1024
vn 0.2508 0.9665 0.0547
vn -0.9643 0.2477 0.0936
vn 0.0571 0.9958 0.0719
vn -0.9952 0.0552 0.0813
vn -0.1385 0.9866 0.0864
vn -0.9880 -0.1397 0.0658
vn -0.3285 0.9395 0.0975
vn -0.9429 -0.3296 0.0477
vn -0.5055 0.8564 0.1048
vn -0.8614 -0.5072 0.0278
vn -0.6630 0.7408 0.1081
vn -0.7464 -0.6654 0.0067
vn -0.7950 0.5970 0.1073
vn 0.4351 0.8997 0.0353
vn -0.6025 -0.7980 -0.0146
vn -0.9421 -0.3265 -0.0770
vn -0.5044 0.8608 -0.0682
vn -0.8608 -0.5048 -0.0649
vn -0.6617 0.7455 -0.0795
vn -0.7461 -0.6640 -0.0504
vn -0.7937 0.6020 -0.0877
vn 0.4352 0.9002 0.0160
vn -0.6023 -0.7975 -0.0339
vn -0.8954 0.4356 -0.0926
vn 0.2512 0.9679 -0.0024
vn -0.9630 0.2525 -0.0940
vn 0.0577 0.9981 -0.0208
vn -0.9940 0.0596 -0.0917
vn -0.1377 0.9897 -0.0383
vn -0.9870 -0.1359 -0.0860
vn -0.3275 0.9433 -0.0543
vn -0.9305 0.2380 -0.2782
vn 0.0738 0.9910 -0.1119
vn -0.9640 0.0463 -0.2617
vn -0.1161 0.9801 -0.1608
vn -0.9607 -0.1475 -0.2351
vn -0.3012 0.9316 -0.2034
vn -0.9205 -0.3361 -0.1994
vn -0.4744 0.8475 -0.2381
vn -0.8447 -0.5120 -0.1560
vn -0.6292 0.7311 -0.2637
vn -0.7362 -0.6684 -0.1065
vn -0.7599 0.5870 -0.2793
vn 0.4385 0.8987 -0.0029
vn -0.5990 -0.7990 -0.0528
vn -0.8616 0.4205 -0.2842
vn 0.2611 0.9635 -0.0586
vn -0.8138 -0.5283 -0.2420
vn -0.5668 0.6980 -0.4376
vn -0.7171 -0.6784 -0.1595
vn -0.6950 0.5526 -0.4600
vn 0.4449 0.8953 -0.0208
vn -0.5926 -0.8024 -0.0707
vn -0.7967 0.3862 -0.4649
vn 0.2801 0.9535 -0.1115
vn -0.8681 0.2050 -0.4521
vn 0.1046 0.9746 -0.1978
vn -0.9064 0.0158 -0.4220
vn -0.0746 0.9582 -0.2763
vn -0.9102 -0.1743 -0.3758
vn -0.2507 0.9049 -0.3440
vn -0.8790 -0.3580 -0.3150
vn -0.4168 0.8170 -0.3985
vn 0.1491 0.9497 -0.2753
vn -0.8234 -0.0307 -0.5666
vn -0.0148 0.9247 -0.3805
vn -0.8374 -0.2151 -0.5026
vn -0.1779 0.8641 -0.4709
vn -0.8191 -0.3915 -0.4192
vn -0.3338 0.7705 -0.5430
vn -0.7694 -0.5532 -0.3194
vn -0.4768 0.6476 -0.5944
vn -0.6897 -0.6938 -0.2072
vn -0.6014 0.5002 -0.6230
vn 0.4542 0.8901 -0.0369
vn -0.5833 -0.8076 -0.0868
vn -0.7031 0.3338 -0.6279
vn 0.3076 0.9381 -0.1593
vn -0.7781 0.1546 -0.6089
vn -0.3626 0.5818 -0.7280
vn -0.6550 -0.7138 -0.2479
vn -0.4828 0.4318 -0.7619
vn 0.4660 0.8834 -0.0507
vn -0.5716 -0.8144 -0.1006
vn -0.5845 0.2654 -0.7668
vn 0.3423 0.9181 -0.2000
vn -0.6639 0.0888 -0.7425
vn 0.2055 0.9172 -0.3413
vn -0.7182 -0.0914 -0.6898
vn 0.0611 0.8809 -0.4693
vn -0.7450 -0.2683 -0.6107
vn -0.0855 0.8108 -0.5790
vn -0.7433 -0.4353 -0.5080
vn -0.2285 0.7098 -0.6663
vn -0.7129 -0.5858 -0.3855
vn -0.5947 -0.1640 -0.7870
vn 0.1500 0.8286 -0.5393
vn -0.6367 -0.3320 -0.6960
vn 0.0228 0.7472 -0.6643
vn -0.6543 -0.4876 -0.5780
vn -0.1051 0.6372 -0.7635
vn -0.6468 -0.6247 -0.4376
vn -0.2288 0.5031 -0.8334
vn -0.6142 -0.7378 -0.2800
vn -0.3436 0.3499 -0.8715
vn 0.4797 0.8753 -0.0615
vn -0.5578 -0.8225 -0.1114
vn -0.4453 0.1835 -0.8764
vn 0.3831 0.8941 -0.2321
vn -0.5301 0.0101 -0.8479
vn 0.2717 0.8783 -0.3934
vn -0.5690 -0.7648 -0.3023
vn -0.1893 0.2579 -0.9475
vn 0.4950 0.8661 -0.0691
vn -0.5425 -0.8316 -0.1189
vn -0.2910 0.0915 -0.9523
vn 0.4283 0.8671 -0.2543
vn -0.3816 -0.0785 -0.9210
vn 0.3451 0.8345 -0.4295
vn -0.4578 -0.2457 -0.8544
vn 0.2487 0.7698 -0.5879
vn -0.5166 -0.4037 -0.7551
vn 0.1429 0.6755 -0.7234
vn -0.5557 -0.5464 -0.6266
vn 0.0318 0.5555 -0.8309
vn -0.5734 -0.6684 -0.4737
vn -0.0803 0.4145 -0.9065
vn 0.3532 0.7066 -0.6131
vn -0.3893 -0.4805 -0.7858
vn 0.2701 0.5986 -0.7541
vn -0.4511 -0.6096 -0.6518
vn 0.1769 0.4679 -0.8659
vn -0.4957 -0.7154 -0.4925
vn 0.0770 0.3195 -0.9445
vn -0.5211 -0.7937 -0.3138
vn -0.0257 0.1591 -0.9869
vn 0.5112 0.8564 -0.0730
vn -0.5263 -0.8414 -0.1229
vn -0.1274 -0.0073 -0.9918
vn 0.4762 0.8382 -0.2659
vn -0.2243 -0.1735 -0.9589
vn 0.4228 0.7876 -0.4483
vn -0.3128 -0.3333 -0.8894
vn 0.1408 0.0574 -0.9884
vn 0.5277 0.8463 -0.0731
vn -0.5099 -0.8514 -0.1230
vn 0.0391 -0.1090 -0.9933
vn 0.5250 0.8084 -0.2663
vn -0.0642 -0.2714 -0.9603
vn 0.5020 0.7392 -0.4490
vn -0.1651 -0.4235 -0.8907
vn 0.4597 0.6416 -0.6141
vn -0.2598 -0.5597 -0.7869
vn 0.3997 0.5195 -0.7552
vn -0.3447 -0.6746 -0.6527
vn 0.3246 0.3777 -0.8672
vn -0.4165 -0.7638 -0.4932
vn 0.2371 0.2217 -0.9458
vn -0.4723 -0.8235 -0.3143
vn -0.1329 -0.6381 -0.7584
vn 0.5266 0.4411 -0.7267
vn -0.2405 -0.7390 -0.6293
vn 0.4692 0.2884 -0.8347
vn -0.3390 -0.8116 -0.4757
vn 0.3940 0.1248 -0.9106
vn -0.4245 -0.8530 -0.3035
vn 0.3038 -0.0433 -0.9518
vn 0.5438 0.8363 -0.0695
vn -0.4937 -0.8614 -0.1194
vn 0.2021 -0.2097 -0.9566
vn 0.5727 0.7789 -0.2556
vn 0.0926 -0.3682 -0.9251
vn 0.5795 0.6913 -0.4316
vn -0.0204 -0.5128 -0.8582
vn 0.5639 0.5772 -0.5907
vn -0.4786 -0.8709 -0.1121
vn 0.3554 -0.3056 -0.8833
vn 0.6177 0.7508 -0.2341
vn 0.2401 -0.4604 -0.8546
vn 0.6524 0.6458 -0.3967
vn 0.1156 -0.5979 -0.7932
vn 0.6619 0.5159 -0.5438
vn -0.0136 -0.7126 -0.7014
vn 0.6459 0.3665 -0.6697
vn -0.1425 -0.8003 -0.5825
vn 0.6052 0.2033 -0.7697
vn -0.2661 -0.8572 -0.4409
vn 0.5414 0.0326 -0.8401
vn -0.3796 -0.8811 -0.2821
vn 0.4571 -0.1392 -0.8785
vn 0.5590 0.8269 -0.0622
vn -0.0544 -0.8561 -0.5140
vn 0.7273 0.1259 -0.6746
vn -0.2006 -0.8987 -0.3900
vn 0.6739 -0.0514 -0.7370
vn -0.3393 -0.9067 -0.2507
vn 0.5948 -0.2265 -0.7713
vn 0.5726 0.8182 -0.0516
vn -0.4649 -0.8795 -0.1015
vn 0.4931 -0.3929 -0.7762
vn 0.6580 0.7252 -0.2027
vn 0.3726 -0.5444 -0.7515
vn 0.7179 0.6042 -0.3458
vn 0.2377 -0.6753 -0.6982
vn 0.7499 0.4601 -0.4753
vn 0.0936 -0.7806 -0.6180
vn 0.7531 0.2986 -0.5863
vn -0.3075 -0.9381 0.1593
vn 0.7694 0.5532 0.3194
vn -0.0770 -0.3195 0.9445
vn -0.6330 0.7171 0.2919
vn 0.3075 0.9381 -0.1593
vn 0.0927 -0.3682 -0.9251
vt 0.747525 0.747525
vt 0.716584 0.685644
vt 0.747525 0.685644
vt 0.747525 0.252475
vt 0.716584 0.190594
vt 0.747525 0.190594
vt 0.747525 0.623762
vt 0.716584 0.623762
vt 0.716584 0.128713
vt 0.747525 0.128713
vt 0.747525 0.561881
vt 0.716584 0.561881
vt 0.716584 0.066832
vt 0.747525 0.066832
vt 0.716584 0.500000
vt 0.747525 0.500000
vt 0.747525 0.933168
vt 0.732054 0.995049
vt 0.716584 0.933168
vt 0.732054 0.004950
vt 0.716584 0.438119
vt 0.747525 0.438119
vt 0.747525 0.871287
vt 0.716584 0.871287
vt 0.716584 0.376238
vt 0.747525 0.376238
vt 0.747525 0.809406
vt 0.716584 0.809406
vt 0.716584 0.314356
vt 0.747525 0.314356
vt 0.716584 0.747525
vt 0.716584 0.252475
vt 0.685644 0.376238
vt 0.685644 0.314356
vt 0.685644 0.747525
vt 0.685644 0.252475
vt 0.685644 0.685644
vt 0.685644 0.190594
vt 0.685644 0.623762
vt 0.685644 0.128713
vt 0.685644 0.561881
vt 0.685644 0.066832
vt 0.685644 0.500000
vt 0.701114 0.995049
vt 0.685644 0.933168
vt 0.701114 0.004950
vt 0.685644 0.438119
vt 0.685644 0.871287
vt 0.685644 0.809406
vt 0.654703 0.128713
vt 0.654703 0.066832
vt 0.654703 0.561881
vt 0.654703 0.500000
vt 0.670173 0.995049
vt 0.654703 0.933168
vt 0.670173 0.004950
vt 0.654703 0.438119
vt 0.654703 0.871287
vt 0.654703 0.376238
vt 0.654703 0.809406
vt 0.654703 0.314356
vt 0.654703 0.747525
vt 0.654703 0.252475
vt 0.654703 0.685644
vt 0.654703 0.190594
vt 0.654703 0.623762
vt 0.623762 0.252475
vt 0.623762 0.747525
vt 0.623762 0.685644
vt 0.623762 0.190594
vt 0.623762 0.623762
vt 0.623762 0.128713
vt 0.623762 0.561881
vt 0.623762 0.066832
vt 0.623762 0.500000
vt 0.639233 0.995049
vt 0.623762 0.933168
vt 0.639233 0.004950
vt 0.623762 0.438119
vt 0.623762 0.871287
vt 0.623762 0.376238
vt 0.623762 0.809406
vt 0.623762 0.314356
vt 0.608292 0.995049
vt 0.592822 0.933168
vt 0.608292 0.004950
vt 0.592822 0.066832
vt 0.592822 0.438119
vt 0.592822 0.871287
vt 0.592822 0.376238
vt 0.592822 0.809406
vt 0.592822 0.314356
vt 0.592822 0.747525
vt 0.592822 0.252475
vt 0.592822 0.685644
vt 0.592822 0.190594
vt 0.592822 0.623762
vt 0.592822 0.128713
vt 0.592822 0.561881
vt 0.592822 0.500000
vt 0.561881 0.747525
vt 0.561881 0.685644
vt 0.561881 0.252475
vt 0.561881 0.190594
vt 0.561881 0.623762
vt 0.561881 0.128713
vt 0.561881 0.561881
vt 0.561881 0.066832
vt 0.561881 0.500000
vt 0.577352 0.995049
vt 0.561881 0.933168
vt 0.577352 0.004950
vt 0.561881 0.438119
vt 0.561881 0.871287
vt 0.561881 0.376238
vt 0.561881 0.809406
vt 0.561881 0.314356
vt 0.530941 0.438119
vt 0.530941 0.871287
vt 0.530941 0.376238
vt 0.530941 0.809406
vt 0.530941 0.314356
vt 0.530941 0.747525
vt 0.530941 0.252475
vt 0.530941 0.685644
vt 0.530941 0.190594
vt 0.530941 0.623762
vt 0.530941 0.128713
vt 0.530941 0.561881
vt 0.530941 0.066832
vt 0.530941 0.500000
vt 0.546411 0.995049
vt 0.530941 0.933168
vt 0.546411 0.004950
vt 0.500000 0.252475
vt 0.500000 0.190594
vt 0.500000 0.623762
vt 0.500000 0.128713
vt 0.500000 0.561881
vt 0.500000 0.066832
vt 0.500000 0.500000
vt 0.515470 0.995049
vt 0.500000 0.933168
vt 0.515470 0.004950
vt 0.500000 0.438119
vt 0.500000 0.871287
vt 0.500000 0.376238
vt 0.500000 0.809406
vt 0.500000 0.314356
vt 0.500000 0.747525
vt 0.500000 0.685644
vt 0.469059 0.933168
vt 0.469059 0.871287
vt 0.469059 0.376238
vt 0.469059 0.809406
vt 0.469059 0.314356
vt 0.469059 0.747525
vt 0.469059 0.252475
vt 0.469059 0.685644
vt 0.469059 0.190594
vt 0.469059 0.623762
vt 0.469059 0.128713
vt 0.469059 0.561881
vt 0.469059 0.066832
vt 0.469059 0.500000
vt 0.484530 0.995049
vt 0.484530 0.004950
vt 0.469059 0.438119
vt 0.438119 0.623762
vt 0.438119 0.190594
vt 0.438119 0.128713
vt 0.438119 0.561881
vt 0.438119 0.066832
vt 0.438119 0.500000
vt 0.453589 0.995049
vt 0.438119 0.933168
vt 0.453589 0.004950
vt 0.438119 0.438119
vt 0.438119 0.871287
vt 0.438119 0.376238
vt 0.438119 0.809406
vt 0.438119 0.314356
vt 0.438119 0.747525
vt 0.438119 0.252475
vt 0.438119 0.685644
vt 0.407178 0.376238
vt 0.407178 0.809406
vt 0.407178 0.314356
vt 0.407178 0.747525
vt 0.407178 0.252475
vt 0.407178 0.685644
vt 0.407178 0.190594
vt 0.407178 0.623762
vt 0.407178 0.128713
vt 0.407178 0.561881
vt 0.407178 0.066832
vt 0.407178 0.500000
vt 0.422649 0.995049
vt 0.407178 0.933168
vt 0.422649 0.004950
vt 0.407178 0.438119
vt 0.407178 0.871287
vt 0.376238 0.190594
vt 0.376238 0.128713
vt 0.376238 0.623762
vt 0.376238 0.561881
vt 0.376238 0.066832
vt 0.376238 0.500000
vt 0.391708 0.995049
vt 0.376238 0.933168
vt 0.391708 0.004950
vt 0.376238 0.438119
vt 0.376238 0.871287
vt 0.376238 0.376238
vt 0.376238 0.809406
vt 0.376238 0.314356
vt 0.376238 0.747525
vt 0.376238 0.252475
vt 0.376238 0.685644
vt 0.345297 0.376238
vt 0.345297 0.314356
vt 0.345297 0.747525
vt 0.345297 0.252475
vt 0.345297 0.685644
vt 0.345297 0.190594
vt 0.345297 0.623762
vt 0.345297 0.128713
vt 0.345297 0.561881
vt 0.345297 0.066832
vt 0.345297 0.500000
vt 0.360767 0.995049
vt 0.345297 0.933168
vt 0.360767 0.004950
vt 0.345297 0.438119
vt 0.345297 0.871287
vt 0.345297 0.809406
vt 0.314356 0.128713
vt 0.314356 0.066832
vt 0.314356 0.561881
vt 0.314356 0.500000
vt 0.329827 0.995049
vt 0.314356 0.933168
vt 0.329827 0.004950
vt 0.314356 0.438119
vt 0.314356 0.871287
vt 0.314356 0.376238
vt 0.314356 0.809406
vt 0.314356 0.314356
vt 0.314356 0.747525
vt 0.314356 0.252475
vt 0.314356 0.685644
vt 0.314356 0.190594
vt 0.314356 0.623762
vt 0.283416 0.747525
vt 0.283416 0.252475
vt 0.283416 0.685644
vt 0.283416 0.190594
vt 0.283416 0.623762
vt 0.283416 0.128713
vt 0.283416 0.561881
vt 0.283416 0.066832
vt 0.283416 0.500000
vt 0.298886 0.995049
vt 0.283416 0.933168
vt 0.298886 0.004950
vt 0.283416 0.438119
vt 0.283416 0.871287
vt 0.283416 0.376238
vt 0.283416 0.809406
vt 0.283416 0.314356
vt 0.252475 0.561881
vt 0.252475 0.500000
vt 0.267946 0.995049
vt 0.252475 0.933168
vt 0.267946 0.004950
vt 0.252475 0.066832
vt 0.252475 0.438119
vt 0.252475 0.871287
vt 0.252475 0.376238
vt 0.252475 0.809406
vt 0.252475 0.314356
vt 0.252475 0.747525
vt 0.252475 0.252475
vt 0.252475 0.685644
vt 0.252475 0.190594
vt 0.252475 0.623762
vt 0.252475 0.128713
vt 0.221535 0.252475
vt 0.221535 0.747525
vt 0.221535 0.685644
vt 0.221535 0.190594
vt 0.221535 0.623762
vt 0.221535 0.128713
vt 0.221535 0.561881
vt 0.221535 0.066832
vt 0.221535 0.500000
vt 0.237005 0.995049
vt 0.221535 0.933168
vt 0.237005 0.004950
vt 0.221535 0.438119
vt 0.221535 0.871287
vt 0.221535 0.376238
vt 0.221535 0.809406
vt 0.221535 0.314356
vt 0.206064 0.995049
vt 0.190594 0.933168
vt 0.206064 0.004950
vt 0.190594 0.066832
vt 0.190594 0.438119
vt 0.190594 0.871287
vt 0.190594 0.376238
vt 0.190594 0.809406
vt 0.190594 0.314356
vt 0.190594 0.747525
vt 0.190594 0.252475
vt 0.190594 0.685644
vt 0.190594 0.190594
vt 0.190594 0.623762
vt 0.190594 0.128713
vt 0.190594 0.561881
vt 0.190594 0.500000
vt 0.159653 0.747525
vt 0.159653 0.685644
vt 0.159653 0.252475
vt 0.159653 0.190594
vt 0.159653 0.623762
vt 0.159653 0.128713
vt 0.159653 0.561881
vt 0.159653 0.066832
vt 0.159653 0.500000
vt 0.175124 0.995049
vt 0.159653 0.933168
vt 0.175124 0.004950
vt 0.159653 0.438119
vt 0.159653 0.871287
vt 0.159653 0.376238
vt 0.159653 0.809406
vt 0.159653 0.314356
vt 0.128713 0.438119
vt 0.128713 0.871287
vt 0.128713 0.376238
vt 0.128713 0.809406
vt 0.128713 0.314356
vt 0.128713 0.747525
vt 0.128713 0.252475
vt 0.128713 0.685644
vt 0.128713 0.190594
vt 0.128713 0.623762
vt 0.128713 0.128713
vt 0.128713 0.561881
vt 0.128713 0.066832
vt 0.128713 0.500000
vt 0.144183 0.995049
vt 0.128713 0.933168
vt 0.144183 0.004950
vt 0.097772 0.252475
vt 0.097772 0.190594
vt 0.097772 0.623762
vt 0.097772 0.128713
vt 0.097772 0.561881
vt 0.097772 0.066832
vt 0.097772 0.500000
vt 0.113243 0.995049
vt 0.097772 0.933168
vt 0.113243 0.004950
vt 0.097772 0.438119
vt 0.097772 0.871287
vt 0.097772 0.376238
vt 0.097772 0.809406
vt 0.097772 0.314356
vt 0.097772 0.747525
vt 0.097772 0.685644
vt 0.066832 0.376238
vt 0.066832 0.809406
vt 0.066832 0.314356
vt 0.066832 0.747525
vt 0.066832 0.252475
vt 0.066832 0.685644
vt 0.066832 0.190594
vt 0.066832 0.623762
vt 0.066832 0.128713
vt 0.066832 0.561881
vt 0.066832 0.066832
vt 0.066832 0.500000
vt 0.082302 0.995049
vt 0.066832 0.933168
vt 0.082302 0.004950
vt 0.066832 0.438119
vt 0.066832 0.871287
vt 0.035891 0.128713
vt 0.035891 0.623762
vt 0.035891 0.561881
vt 0.035891 0.066832
vt 0.035891 0.500000
vt 0.051361 0.995049
vt 0.035891 0.933168
vt 0.051361 0.004950
vt 0.035891 0.438119
vt 0.035891 0.871287
vt 0.035891 0.376238
vt 0.035891 0.809406
vt 0.035891 0.314356
vt 0.035891 0.747525
vt 0.035891 0.252475
vt 0.035891 0.685644
vt 0.035891 0.190594
vt 0.004950 0.871287
vt 0.004950 0.809406
vt 0.004950 0.376238
vt 0.004950 0.314356
vt 0.004950 0.747525
vt 0.004950 0.252475
vt 0.004950 0.685644
vt 0.004950 0.190594
vt 0.004950 0.623762
vt 0.004950 0.128713
vt 0.004950 0.561881
vt 0.004950 0.066832
vt 0.004950 0.500000
vt 0.020421 0.995049
vt 0.004950 0.933168
vt 0.020421 0.004950
vt 0.004950 0.438119
vt 0.995049 0.561881
vt 0.964109 0.623762
vt 0.964109 0.561881
vt 0.995049 0.128713
vt 0.964109 0.066832
vt 0.995049 0.066832
vt 0.995049 0.500000
vt 0.964109 0.500000
vt 0.995049 0.933168
vt 0.979579 0.995049
vt 0.964109 0.933168
vt 0.979579 0.004950
vt 0.964109 0.438119
vt 0.995049 0.438119
vt 0.995049 0.871287
vt 0.964109 0.871287
vt 0.964109 0.376238
vt 0.995049 0.376238
vt 0.995049 0.809406
vt 0.964109 0.809406
vt 0.995049 0.314356
vt 0.964109 0.314356
vt 0.964109 0.747525
vt 0.995049 0.747525
vt 0.964109 0.252475
vt 0.995049 0.252475
vt 0.995049 0.685644
vt 0.964109 0.685644
vt 0.995049 0.190594
vt 0.964109 0.190594
vt 0.995049 0.623762
vt 0.964109 0.128713
vt 0.933168 0.376238
vt 0.933168 0.314356
vt 0.933168 0.747525
vt 0.933168 0.252475
vt 0.933168 0.685644
vt 0.933168 0.190594
vt 0.933168 0.623762
vt 0.933168 0.128713
vt 0.933168 0.561881
vt 0.933168 0.066832
vt 0.933168 0.500000
vt 0.948639 0.995049
vt 0.933168 0.933168
vt 0.948639 0.004950
vt 0.933168 0.438119
vt 0.933168 0.871287
vt 0.933168 0.809406
vt 0.902228 0.128713
vt 0.902228 0.066832
vt 0.902228 0.561881
vt 0.902228 0.500000
vt 0.917698 0.995049
vt 0.902228 0.933168
vt 0.917698 0.004950
vt 0.902228 0.438119
vt 0.902228 0.871287
vt 0.902228 0.376238
vt 0.902228 0.809406
vt 0.902228 0.314356
vt 0.902228 0.747525
vt 0.902228 0.252475
vt 0.902228 0.685644
vt 0.902228 0.190594
vt 0.902228 0.623762
vt 0.871287 0.747525
vt 0.871287 0.252475
vt 0.871287 0.685644
vt 0.871287 0.190594
vt 0.871287 0.623762
vt 0.871287 0.128713
vt 0.871287 0.561881
vt 0.871287 0.066832
vt 0.871287 0.500000
vt 0.886757 0.995049
vt 0.871287 0.933168
vt 0.886757 0.004950
vt 0.871287 0.438119
vt 0.871287 0.871287
vt 0.871287 0.376238
vt 0.871287 0.809406
vt 0.871287 0.314356
vt 0.840346 0.561881
vt 0.840346 0.500000
vt 0.855817 0.995049
vt 0.840347 0.933168
vt 0.855817 0.004950
vt 0.840347 0.066832
vt 0.840346 0.438119
vt 0.840347 0.871287
vt 0.840347 0.376238
vt 0.840346 0.809406
vt 0.840346 0.314356
vt 0.840347 0.747525
vt 0.840347 0.252475
vt 0.840346 0.685644
vt 0.840346 0.190594
vt 0.840347 0.623762
vt 0.840347 0.128713
vt 0.809406 0.252475
vt 0.809406 0.747525
vt 0.809406 0.685644
vt 0.809406 0.190594
vt 0.809406 0.623762
vt 0.809406 0.128713
vt 0.809406 0.561881
vt 0.809406 0.066832
vt 0.809406 0.500000
vt 0.824876 0.995049
vt 0.809406 0.933168
vt 0.824876 0.004950
vt 0.809406 0.438119
vt 0.809406 0.871287
vt 0.809406 0.376238
vt 0.809406 0.809406
vt 0.809406 0.314356
vt 0.793936 0.004950
vt 0.778465 0.066832
vt 0.778465 0.438119
vt 0.778465 0.871287
vt 0.778465 0.376238
vt 0.778465 0.809406
vt 0.778465 0.314356
vt 0.778465 0.747525
vt 0.778465 0.252475
vt 0.778465 0.685644
vt 0.778465 0.190594
vt 0.778465 0.623762
vt 0.778465 0.128713
vt 0.778465 0.561881
vt 0.778465 0.500000
vt 0.793936 0.995049
vt 0.778465 0.933168
vt 0.762995 0.995049
vt 0.762995 0.004950
s 0
usemtl マテリアル.003
f 476/1/1 11/2/1 2/3/1
f 479/4/2 19/5/2 480/6/2
f 477/7/3 11/2/3 12/8/3
f 480/6/4 20/9/4 481/10/4
f 3/11/5 12/8/5 13/12/5
f 481/10/6 21/13/6 482/14/6
f 3/11/7 14/15/7 4/16/7
f 474/17/8 82/18/8 7/19/8
f 308/20/9 482/14/9 21/13/9
f 4/16/10 15/21/10 5/22/10
f 475/23/11 7/19/11 8/24/11
f 5/22/12 16/25/12 478/26/12
f 1/27/13 8/24/13 9/28/13
f 478/26/14 17/29/14 6/30/14
f 476/1/15 9/28/15 10/31/15
f 479/4/16 17/29/16 18/32/16
f 17/29/17 31/33/17 32/34/17
f 9/28/18 25/35/18 10/31/18
f 18/32/19 32/34/19 33/36/19
f 10/31/20 26/37/20 11/2/20
f 19/5/21 33/36/21 34/38/21
f 11/2/22 27/39/22 12/8/22
f 20/9/23 34/38/23 35/40/23
f 13/12/24 27/39/24 28/41/24
f 20/9/25 36/42/25 21/13/25
f 13/12/26 29/43/26 14/15/26
f 7/19/27 82/44/27 22/45/27
f 308/46/28 21/13/28 36/42/28
f 14/15/29 30/47/29 15/21/29
f 7/19/30 23/48/30 8/24/30
f 15/21/31 31/33/31 16/25/31
f 8/24/32 24/49/32 9/28/32
f 36/42/33 50/50/33 51/51/33
f 29/43/34 43/52/34 44/53/34
f 22/45/35 82/54/35 37/55/35
f 308/56/36 36/42/36 51/51/36
f 29/43/37 45/57/37 30/47/37
f 22/45/38 38/58/38 23/48/38
f 30/47/39 46/59/39 31/33/39
f 23/48/40 39/60/40 24/49/40
f 32/34/41 46/59/41 47/61/41
f 24/49/42 40/62/42 25/35/42
f 33/36/43 47/61/43 48/63/43
f 25/35/44 41/64/44 26/37/44
f 34/38/45 48/63/45 49/65/45
f 26/37/46 42/66/46 27/39/46
f 35/40/47 49/65/47 50/50/47
f 28/41/48 42/66/48 43/52/48
f 47/61/49 63/67/49 48/63/49
f 41/64/50 55/68/50 56/69/50
f 49/65/51 63/67/51 64/70/51
f 41/64/52 57/71/52 42/66/52
f 50/50/53 64/70/53 65/72/53
f 43/52/54 57/71/54 58/73/54
f 51/51/55 65/72/55 66/74/55
f 44/53/56 58/73/56 59/75/56
f 37/55/57 82/76/57 52/77/57
f 308/78/58 51/51/58 66/74/58
f 44/53/59 60/79/59 45/57/59
f 37/55/60 53/80/60 38/58/60
f 45/57/61 61/81/61 46/59/61
f 38/58/62 54/82/62 39/60/62
f 47/61/63 61/81/63 62/83/63
f 39/60/64 55/68/64 40/62/64
f 52/77/65 82/84/65 67/85/65
f 308/86/66 66/74/66 81/87/66
f 59/75/67 75/88/67 60/79/67
f 53/80/68 67/85/68 68/89/68
f 60/79/69 76/90/69 61/81/69
f 54/82/70 68/89/70 69/91/70
f 62/83/71 76/90/71 77/92/71
f 54/82/72 70/93/72 55/68/72
f 62/83/73 78/94/73 63/67/73
f 56/69/74 70/93/74 71/95/74
f 64/70/75 78/94/75 79/96/75
f 56/69/76 72/97/76 57/71/76
f 64/70/77 80/98/77 65/72/77
f 58/73/78 72/97/78 73/99/78
f 65/72/79 81/87/79 66/74/79
f 59/75/80 73/99/80 74/100/80
f 71/95/81 86/101/81 87/102/81
f 79/96/82 94/103/82 95/104/82
f 71/95/83 88/105/83 72/97/83
f 80/98/84 95/104/84 96/106/84
f 73/99/85 88/105/85 89/107/85
f 81/87/86 96/106/86 97/108/86
f 74/100/87 89/107/87 90/109/87
f 67/85/88 82/110/88 83/111/88
f 308/112/89 81/87/89 97/108/89
f 74/100/90 91/113/90 75/88/90
f 67/85/91 84/114/91 68/89/91
f 75/88/92 92/115/92 76/90/92
f 68/89/93 85/116/93 69/91/93
f 77/92/94 92/115/94 93/117/94
f 69/91/95 86/101/95 70/93/95
f 77/92/96 94/103/96 78/94/96
f 90/109/97 106/118/97 91/113/97
f 83/111/98 99/119/98 84/114/98
f 91/113/99 107/120/99 92/115/99
f 85/116/100 99/119/100 100/121/100
f 93/117/101 107/120/101 108/122/101
f 85/116/102 101/123/102 86/101/102
f 93/117/103 109/124/103 94/103/103
f 87/102/104 101/123/104 102/125/104
f 95/104/105 109/124/105 110/126/105
f 87/102/106 103/127/106 88/105/106
f 95/104/107 111/128/107 96/106/107
f 89/107/108 103/127/108 104/129/108
f 96/106/109 112/130/109 97/108/109
f 90/109/110 104/129/110 105/131/110
f 83/111/111 82/132/111 98/133/111
f 308/134/112 97/108/112 112/130/112
f 110/126/113 124/135/113 125/136/113
f 102/125/114 118/137/114 103/127/114
f 111/128/115 125/136/115 126/138/115
f 104/129/116 118/137/116 119/139/116
f 111/128/117 127/140/117 112/130/117
f 105/131/118 119/139/118 120/141/118
f 98/133/119 82/142/119 113/143/119
f 308/144/120 112/130/120 127/140/120
f 105/131/121 121/145/121 106/118/121
f 98/133/122 114/146/122 99/119/122
f 106/118/123 122/147/123 107/120/123
f 99/119/124 115/148/124 100/121/124
f 108/122/125 122/147/125 123/149/125
f 100/121/126 116/150/126 101/123/126
f 108/122/127 124/135/127 109/124/127
f 102/125/128 116/150/128 117/151/128
f 114/146/129 128/152/129 129/153/129
f 121/145/130 137/154/130 122/147/130
f 115/148/131 129/153/131 130/155/131
f 123/149/132 137/154/132 138/156/132
f 115/148/133 131/157/133 116/150/133
f 123/149/134 139/158/134 124/135/134
f 117/151/135 131/157/135 132/159/135
f 125/136/136 139/158/136 140/160/136
f 117/151/137 133/161/137 118/137/137
f 125/136/138 141/162/138 126/138/138
f 119/139/139 133/161/139 134/163/139
f 126/138/140 142/164/140 127/140/140
f 120/141/141 134/163/141 135/165/141
f 113/143/142 82/166/142 128/152/142
f 308/167/143 127/140/143 142/164/143
f 120/141/144 136/168/144 121/145/144
f 132/159/145 148/169/145 133/161/145
f 141/162/146 155/170/146 156/171/146
f 134/163/147 148/169/147 149/172/147
f 141/162/148 157/173/148 142/164/148
f 135/165/149 149/172/149 150/174/149
f 128/152/150 82/175/150 143/176/150
f 308/177/151 142/164/151 157/173/151
f 135/165/152 151/178/152 136/168/152
f 128/152/153 144/179/153 129/153/153
f 136/168/154 152/180/154 137/154/154
f 129/153/155 145/181/155 130/155/155
f 138/156/156 152/180/156 153/182/156
f 130/155/157 146/183/157 131/157/157
f 138/156/158 154/184/158 139/158/158
f 132/159/159 146/183/159 147/185/159
f 140/160/160 154/184/160 155/170/160
f 151/178/161 167/186/161 152/180/161
f 144/179/162 160/187/162 145/181/162
f 153/182/163 167/186/163 168/188/163
f 145/181/164 161/189/164 146/183/164
f 153/182/165 169/190/165 154/184/165
f 147/185/166 161/189/166 162/191/166
f 155/170/167 169/190/167 170/192/167
f 147/185/168 163/193/168 148/169/168
f 156/171/169 170/192/169 171/194/169
f 149/172/170 163/193/170 164/195/170
f 157/173/171 171/194/171 172/196/171
f 150/174/172 164/195/172 165/197/172
f 143/176/173 82/198/173 158/199/173
f 308/200/174 157/173/174 172/196/174
f 150/174/175 166/201/175 151/178/175
f 143/176/176 159/202/176 144/179/176
f 171/194/177 185/203/177 186/204/177
f 164/195/178 178/205/178 179/206/178
f 172/196/179 186/204/179 187/207/179
f 165/197/180 179/206/180 180/208/180
f 158/199/181 82/209/181 173/210/181
f 308/211/182 172/196/182 187/207/182
f 165/197/183 181/212/183 166/201/183
f 158/199/184 174/213/184 159/202/184
f 166/201/185 182/214/185 167/186/185
f 159/202/186 175/215/186 160/187/186
f 168/188/187 182/214/187 183/216/187
f 160/187/188 176/217/188 161/189/188
f 168/188/189 184/218/189 169/190/189
f 162/191/190 176/217/190 177/219/190
f 170/192/191 184/218/191 185/203/191
f 162/191/192 178/205/192 163/193/192
f 183/216/193 197/220/193 198/221/193
f 175/215/194 191/222/194 176/217/194
f 183/216/195 199/223/195 184/218/195
f 177/219/196 191/222/196 192/224/196
f 185/203/197 199/223/197 200/225/197
f 177/219/198 193/226/198 178/205/198
f 185/203/199 201/227/199 186/204/199
f 179/206/200 193/226/200 194/228/200
f 186/204/201 202/229/201 187/207/201
f 180/208/202 194/228/202 195/230/202
f 173/210/203 82/231/203 188/232/203
f 308/233/204 187/207/204 202/229/204
f 180/208/205 196/234/205 181/212/205
f 174/213/206 188/232/206 189/235/206
f 181/212/207 197/220/207 182/214/207
f 175/215/208 189/235/208 190/236/208
f 202/229/209 216/237/209 217/238/209
f 195/230/210 209/239/210 210/240/210
f 188/232/211 82/241/211 203/242/211
f 308/243/212 202/229/212 217/238/212
f 195/230/213 211/244/213 196/234/213
f 188/232/214 204/245/214 189/235/214
f 196/234/215 212/246/215 197/220/215
f 189/235/216 205/247/216 190/236/216
f 198/221/217 212/246/217 213/248/217
f 190/236/218 206/249/218 191/222/218
f 198/221/219 214/250/219 199/223/219
f 192/224/220 206/249/220 207/251/220
f 200/225/221 214/250/221 215/252/221
f 192/224/222 208/253/222 193/226/222
f 201/227/223 215/252/223 216/237/223
f 194/228/224 208/253/224 209/239/224
f 205/247/225 221/254/225 206/249/225
f 213/248/226 229/255/226 214/250/226
f 207/251/227 221/254/227 222/256/227
f 215/252/228 229/255/228 230/257/228
f 207/251/229 223/258/229 208/253/229
f 216/237/230 230/257/230 231/259/230
f 209/239/231 223/258/231 224/260/231
f 217/238/232 231/259/232 232/261/232
f 210/240/233 224/260/233 225/262/233
f 203/242/234 82/263/234 218/264/234
f 308/265/235 217/238/235 232/261/235
f 210/240/236 226/266/236 211/244/236
f 203/242/237 219/267/237 204/245/237
f 211/244/238 227/268/238 212/246/238
f 204/245/239 220/269/239 205/247/239
f 213/248/240 227/268/240 228/270/240
f 225/262/241 239/271/241 240/272/241
f 218/264/242 82/273/242 233/274/242
f 308/275/243 232/261/243 247/276/243
f 225/262/244 241/277/244 226/266/244
f 219/267/245 233/274/245 234/278/245
f 226/266/246 242/279/246 227/268/246
f 219/267/247 235/280/247 220/269/247
f 228/270/248 242/279/248 243/281/248
f 220/269/249 236/282/249 221/254/249
f 228/270/250 244/283/250 229/255/250
f 222/256/251 236/282/251 237/284/251
f 230/257/252 244/283/252 245/285/252
f 222/256/253 238/286/253 223/258/253
f 231/259/254 245/285/254 246/287/254
f 224/260/255 238/286/255 239/271/255
f 231/259/256 247/276/256 232/261/256
f 243/281/257 259/288/257 244/283/257
f 237/284/258 251/289/258 252/290/258
f 245/285/259 259/288/259 260/291/259
f 237/284/260 253/292/260 238/286/260
f 245/285/261 261/293/261 246/287/261
f 239/271/262 253/292/262 254/294/262
f 246/287/263 262/295/263 247/276/263
f 240/272/264 254/294/264 255/296/264
f 233/274/265 82/297/265 248/298/265
f 308/299/266 247/276/266 262/295/266
f 240/272/267 256/300/267 241/277/267
f 234/278/268 248/298/268 249/301/268
f 241/277/269 257/302/269 242/279/269
f 235/280/270 249/301/270 250/303/270
f 243/281/271 257/302/271 258/304/271
f 235/280/272 251/289/272 236/282/272
f 248/298/273 82/305/273 263/306/273
f 308/307/274 262/295/274 277/308/274
f 255/296/275 271/309/275 256/300/275
f 249/301/276 263/306/276 264/310/276
f 256/300/277 272/311/277 257/302/277
f 249/301/278 265/312/278 250/303/278
f 258/304/279 272/311/279 273/313/279
f 250/303/280 266/314/280 251/289/280
f 258/304/281 274/315/281 259/288/281
f 252/290/282 266/314/282 267/316/282
f 260/291/283 274/315/283 275/317/283
f 252/290/284 268/318/284 253/292/284
f 261/293/285 275/317/285 276/319/285
f 254/294/286 268/318/286 269/320/286
f 261/293/287 277/308/287 262/295/287
f 255/296/288 269/320/288 270/321/288
f 267/316/289 281/322/289 282/323/289
f 275/317/290 289/324/290 290/325/290
f 267/316/291 283/326/291 268/318/291
f 275/317/292 291/327/292 276/319/292
f 269/320/293 283/326/293 284/328/293
f 276/319/294 292/329/294 277/308/294
f 270/321/295 284/328/295 285/330/295
f 263/306/296 82/331/296 278/332/296
f 308/333/297 277/308/297 292/329/297
f 270/321/298 286/334/298 271/309/298
f 263/306/299 279/335/299 264/310/299
f 271/309/300 287/336/300 272/311/300
f 264/310/301 280/337/301 265/312/301
f 273/313/302 287/336/302 288/338/302
f 265/312/303 281/322/303 266/314/303
f 273/313/304 289/324/304 274/315/304
f 285/330/305 301/339/305 286/334/305
f 278/332/306 294/340/306 279/335/306
f 286/334/307 302/341/307 287/336/307
f 280/337/308 294/340/308 295/342/308
f 288/338/309 302/341/309 303/343/309
f 280/337/310 296/344/310 281/322/310
f 288/338/311 304/345/311 289/324/311
f 282/323/312 296/344/312 297/346/312
f 290/325/313 304/345/313 305/347/313
f 282/323/314 298/348/314 283/326/314
f 290/325/315 306/349/315 291/327/315
f 284/328/316 298/348/316 299/350/316
f 292/329/317 306/349/317 307/351/317
f 285/330/318 299/350/318 300/352/318
f 278/332/319 82/353/319 293/354/319
f 308/355/320 292/329/320 307/351/320
f 305/347/321 320/356/321 321/357/321
f 297/346/322 314/358/322 298/348/322
f 305/347/323 322/359/323 306/349/323
f 299/350/324 314/358/324 315/360/324
f 306/349/325 323/361/325 307/351/325
f 300/352/326 315/360/326 316/362/326
f 293/354/327 82/363/327 309/364/327
f 308/365/328 307/351/328 323/361/328
f 300/352/329 317/366/329 301/339/329
f 294/340/330 309/364/330 310/367/330
f 301/339/331 318/368/331 302/341/331
f 295/342/332 310/367/332 311/369/332
f 303/343/333 318/368/333 319/370/333
f 295/342/334 312/371/334 296/344/334
f 303/343/335 320/356/335 304/345/335
f 297/346/336 312/371/336 313/372/336
f 317/366/337 333/373/337 318/368/337
f 310/367/338 326/374/338 311/369/338
f 319/370/339 333/373/339 334/375/339
f 311/369/340 327/376/340 312/371/340
f 319/370/341 335/377/341 320/356/341
f 313/372/342 327/376/342 328/378/342
f 321/357/343 335/377/343 336/379/343
f 313/372/344 329/380/344 314/358/344
f 321/357/345 337/381/345 322/359/345
f 315/360/346 329/380/346 330/382/346
f 323/361/347 337/381/347 338/383/347
f 316/362/348 330/382/348 331/384/348
f 309/364/349 82/385/349 324/386/349
f 308/387/350 323/361/350 338/383/350
f 316/362/351 332/388/351 317/366/351
f 309/364/352 325/389/352 310/367/352
f 336/379/353 352/390/353 337/381/353
f 330/382/354 344/391/354 345/392/354
f 338/383/355 352/390/355 353/393/355
f 331/384/356 345/392/356 346/394/356
f 324/386/357 82/395/357 339/396/357
f 308/397/358 338/383/358 353/393/358
f 331/384/359 347/398/359 332/388/359
f 324/386/360 340/399/360 325/389/360
f 332/388/361 348/400/361 333/373/361
f 326/374/362 340/399/362 341/401/362
f 334/375/363 348/400/363 349/402/363
f 326/374/364 342/403/364 327/376/364
f 334/375/365 350/404/365 335/377/365
f 328/378/366 342/403/366 343/405/366
f 336/379/367 350/404/367 351/406/367
f 328/378/368 344/391/368 329/380/368
f 341/401/369 355/407/369 356/408/369
f 349/402/370 363/409/370 364/410/370
f 341/401/371 357/411/371 342/403/371
f 349/402/372 365/412/372 350/404/372
f 343/405/373 357/411/373 358/413/373
f 351/406/374 365/412/374 366/414/374
f 343/405/375 359/415/375 344/391/375
f 351/406/376 367/416/376 352/390/376
f 345/392/377 359/415/377 360/417/377
f 353/393/378 367/416/378 368/418/378
f 346/394/379 360/417/379 361/419/379
f 339/396/380 82/420/380 354/421/380
f 308/422/381 353/393/381 368/418/381
f 346/394/382 362/423/382 347/398/382
f 339/396/383 355/407/383 340/399/383
f 347/398/384 363/409/384 348/400/384
f 360/424/385 374/425/385 375/426/385
f 367/427/386 383/428/386 368/429/386
f 361/430/387 375/426/387 376/431/387
f 354/432/388 82/433/388 369/434/388
f 308/435/389 368/429/389 383/428/389
f 361/430/390 377/436/390 362/437/390
f 355/438/391 369/434/391 370/439/391
f 362/437/392 378/440/392 363/441/392
f 356/442/393 370/439/393 371/443/393
f 364/444/394 378/440/394 379/445/394
f 356/442/395 372/446/395 357/447/395
f 364/444/396 380/448/396 365/449/396
f 358/450/397 372/446/397 373/451/397
f 366/452/398 380/448/398 381/453/398
f 358/450/399 374/425/399 359/454/399
f 366/452/400 382/455/400 367/427/400
f 379/445/401 393/456/401 394/457/401
f 371/443/402 387/458/402 372/446/402
f 379/445/403 395/459/403 380/448/403
f 373/451/404 387/458/404 388/460/404
f 381/453/405 395/459/405 396/461/405
f 373/451/406 389/462/406 374/425/406
f 381/453/407 397/463/407 382/455/407
f 375/426/408 389/462/408 390/464/408
f 382/455/409 398/465/409 383/428/409
f 376/431/410 390/464/410 391/466/410
f 369/434/411 82/467/411 384/468/411
f 308/469/412 383/428/412 398/465/412
f 376/431/413 392/470/413 377/436/413
f 370/439/414 384/468/414 385/471/414
f 377/436/415 393/456/415 378/440/415
f 371/443/416 385/471/416 386/472/416
f 398/465/417 412/473/417 413/474/417
f 391/466/418 405/475/418 406/476/418
f 384/468/419 82/477/419 399/478/419
f 308/479/420 398/465/420 413/474/420
f 391/466/421 407/480/421 392/470/421
f 384/468/422 400/481/422 385/471/422
f 392/470/423 408/482/423 393/456/423
f 386/472/424 400/481/424 401/483/424
f 394/457/425 408/482/425 409/484/425
f 386/472/426 402/485/426 387/458/426
f 394/457/427 410/486/427 395/459/427
f 388/460/428 402/485/428 403/487/428
f 396/461/429 410/486/429 411/488/429
f 388/460/430 404/489/430 389/462/430
f 396/461/431 412/473/431 397/463/431
f 390/464/432 404/489/432 405/475/432
f 401/483/433 417/490/433 402/485/433
f 409/484/434 425/491/434 410/486/434
f 403/487/435 417/490/435 418/492/435
f 411/488/436 425/491/436 426/493/436
f 403/487/437 419/494/437 404/489/437
f 411/488/438 427/495/438 412/473/438
f 405/475/439 419/494/439 420/496/439
f 412/473/440 428/497/440 413/474/440
f 406/476/441 420/496/441 421/498/441
f 399/478/442 82/499/442 414/500/442
f 308/501/443 413/474/443 428/497/443
f 406/476/444 422/502/444 407/480/444
f 399/478/445 415/503/445 400/481/445
f 407/480/446 423/504/446 408/482/446
f 401/483/447 415/503/447 416/505/447
f 409/484/448 423/504/448 424/506/448
f 421/498/449 435/507/449 436/508/449
f 414/500/450 82/509/450 429/510/450
f 308/511/451 428/497/451 443/512/451
f 421/498/452 437/513/452 422/502/452
f 414/500/453 430/514/453 415/503/453
f 422/502/454 438/515/454 423/504/454
f 416/505/455 430/514/455 431/516/455
f 424/506/456 438/515/456 439/517/456
f 416/505/457 432/518/457 417/490/457
f 424/506/458 440/519/458 425/491/458
f 418/492/459 432/518/459 433/520/459
f 426/493/460 440/519/460 441/521/460
f 418/492/461 434/522/461 419/494/461
f 426/493/462 442/523/462 427/495/462
f 420/496/463 434/522/463 435/507/463
f 428/497/464 442/523/464 443/512/464
f 439/517/465 455/524/465 440/519/465
f 433/520/466 447/525/466 448/526/466
f 441/521/467 455/524/467 456/527/467
f 433/520/468 449/528/468 434/522/468
f 441/521/469 457/529/469 442/523/469
f 435/507/470 449/528/470 450/530/470
f 442/523/471 458/531/471 443/512/471
f 436/508/472 450/530/472 451/532/472
f 429/510/473 82/533/473 444/534/473
f 308/535/474 443/512/474 458/531/474
f 436/508/475 452/536/475 437/513/475
f 430/514/476 444/534/476 445/537/476
f 437/513/477 453/538/477 438/515/477
f 431/516/478 445/537/478 446/539/478
f 439/517/479 453/538/479 454/540/479
f 431/516/480 447/525/480 432/518/480
f 308/541/481 458/531/481 473/542/481
f 451/532/482 467/543/482 452/536/482
f 444/534/483 460/544/483 445/537/483
f 452/536/484 468/545/484 453/538/484
f 446/539/485 460/544/485 461/546/485
f 454/540/486 468/545/486 469/547/486
f 446/539/487 462/548/487 447/525/487
f 454/540/488 470/549/488 455/524/488
f 448/526/489 462/548/489 463/550/489
f 456/527/490 470/549/490 471/551/490
f 448/526/491 464/552/491 449/528/491
f 456/527/492 472/553/492 457/529/492
f 450/530/493 464/552/493 465/554/493
f 458/531/494 472/553/494 473/542/494
f 451/532/495 465/554/495 466/555/495
f 444/534/496 82/556/496 459/557/496
f 471/551/497 479/4/497 480/6/497
f 464/552/498 2/3/498 477/7/498
f 471/551/499 481/10/499 472/553/499
f 465/554/500 477/7/500 3/11/500
f 472/553/501 482/14/501 473/542/501
f 466/555/502 3/11/502 4/16/502
f 459/557/503 82/558/503 474/17/503
f 308/559/504 473/542/504 482/14/504
f 466/555/505 5/22/505 467/543/505
f 459/557/506 475/23/506 460/544/506
f 467/543/507 478/26/507 468/545/507
f 461/546/508 475/23/508 1/27/508
f 468/545/509 6/30/509 469/547/509
f 462/548/510 1/27/510 476/1/510
f 469/547/511 479/4/511 470/549/511
f 463/550/512 476/1/512 2/3/512
f 476/1/1 10/31/1 11/2/1
f 479/4/2 18/32/2 19/5/2
f 477/7/3 2/3/3 11/2/3
f 480/6/4 19/5/4 20/9/4
f 3/11/5 477/7/5 12/8/5
f 481/10/6 20/9/6 21/13/6
f 3/11/7 13/12/7 14/15/7
f 4/16/10 14/15/10 15/21/10
f 475/23/11 474/17/11 7/19/11
f 5/22/12 15/21/12 16/25/12
f 1/27/13 475/23/13 8/24/13
f 478/26/14 16/25/14 17/29/14
f 476/1/15 1/27/15 9/28/15
f 479/4/16 6/30/16 17/29/16
f 17/29/17 16/25/17 31/33/17
f 9/28/18 24/49/18 25/35/18
f 18/32/19 17/29/19 32/34/19
f 10/31/20 25/35/20 26/37/20
f 19/5/21 18/32/21 33/36/21
f 11/2/22 26/37/22 27/39/22
f 20/9/23 19/5/23 34/38/23
f 13/12/24 12/8/24 27/39/24
f 20/9/25 35/40/25 36/42/25
f 13/12/26 28/41/26 29/43/26
f 14/15/29 29/43/29 30/47/29
f 7/19/30 22/45/30 23/48/30
f 15/21/31 30/47/31 31/33/31
f 8/24/32 23/48/32 24/49/32
f 36/42/33 35/40/33 50/50/33
f 29/43/34 28/41/34 43/52/34
f 29/43/37 44/53/37 45/57/37
f 22/45/38 37/55/38 38/58/38
f 30/47/39 45/57/39 46/59/39
f 23/48/40 38/58/40 39/60/40
f 32/34/41 31/33/41 46/59/41
f 24/49/42 39/60/42 40/62/42
f 33/36/43 32/34/43 47/61/43
f 25/35/44 40/62/44 41/64/44
f 34/38/45 33/36/45 48/63/45
f 26/37/46 41/64/46 42/66/46
f 35/40/47 34/38/47 49/65/47
f 28/41/48 27/39/48 42/66/48
f 47/61/49 62/83/49 63/67/49
f 41/64/50 40/62/50 55/68/50
f 49/65/51 48/63/51 63/67/51
f 41/64/52 56/69/52 57/71/52
f 50/50/53 49/65/53 64/70/53
f 43/52/54 42/66/54 57/71/54
f 51/51/55 50/50/55 65/72/55
f 44/53/56 43/52/56 58/73/56
f 44/53/59 59/75/59 60/79/59
f 37/55/60 52/77/60 53/80/60
f 45/57/61 60/79/61 61/81/61
f 38/58/62 53/80/62 54/82/62
f 47/61/63 46/59/63 61/81/63
f 39/60/64 54/82/64 55/68/64
f 59/75/67 74/100/67 75/88/67
f 53/80/68 52/77/68 67/85/68
f 60/79/69 75/88/69 76/90/69
f 54/82/70 53/80/70 68/89/70
f 62/83/71 61/81/71 76/90/71
f 54/82/72 69/91/72 70/93/72
f 62/83/73 77/92/73 78/94/73
f 56/69/74 55/68/74 70/93/74
f 64/70/75 63/67/75 78/94/75
f 56/69/76 71/95/76 72/97/76
f 64/70/77 79/96/77 80/98/77
f 58/73/78 57/71/78 72/97/78
f 65/72/79 80/98/79 81/87/79
f 59/75/80 58/73/80 73/99/80
f 71/95/81 70/93/81 86/101/81
f 79/96/82 78/94/82 94/103/82
f 71/95/83 87/102/83 88/105/83
f 80/98/84 79/96/84 95/104/84
f 73/99/85 72/97/85 88/105/85
f 81/87/86 80/98/86 96/106/86
f 74/100/87 73/99/87 89/107/87
f 74/100/90 90/109/90 91/113/90
f 67/85/91 83/111/91 84/114/91
f 75/88/92 91/113/92 92/115/92
f 68/89/93 84/114/93 85/116/93
f 77/92/94 76/90/94 92/115/94
f 69/91/95 85/116/95 86/101/95
f 77/92/96 93/117/96 94/103/96
f 90/109/97 105/131/97 106/118/97
f 83/111/98 98/133/98 99/119/98
f 91/113/99 106/118/99 107/120/99
f 85/116/100 84/114/100 99/119/100
f 93/117/101 92/115/101 107/120/101
f 85/116/102 100/121/102 101/123/102
f 93/117/103 108/122/103 109/124/103
f 87/102/104 86/101/104 101/123/104
f 95/104/105 94/103/105 109/124/105
f 87/102/106 102/125/106 103/127/106
f 95/104/107 110/126/107 111/128/107
f 89/107/108 88/105/108 103/127/108
f 96/106/109 111/128/109 112/130/109
f 90/109/110 89/107/110 104/129/110
f 110/126/113 109/124/113 124/135/113
f 102/125/114 117/151/114 118/137/114
f 111/128/115 110/126/115 125/136/115
f 104/129/116 103/127/116 118/137/116
f 111/128/513 126/138/513 127/140/513
f 105/131/118 104/129/118 119/139/118
f 105/131/121 120/141/121 121/145/121
f 98/133/122 113/143/122 114/146/122
f 106/118/123 121/145/123 122/147/123
f 99/119/514 114/146/514 115/148/514
f 108/122/125 107/120/125 122/147/125
f 100/121/126 115/148/126 116/150/126
f 108/122/127 123/149/127 124/135/127
f 102/125/128 101/123/128 116/150/128
f 114/146/129 113/143/129 128/152/129
f 121/145/130 136/168/130 137/154/130
f 115/148/131 114/146/131 129/153/131
f 123/149/132 122/147/132 137/154/132
f 115/148/133 130/155/133 131/157/133
f 123/149/134 138/156/134 139/158/134
f 117/151/135 116/150/135 131/157/135
f 125/136/136 124/135/136 139/158/136
f 117/151/137 132/159/137 133/161/137
f 125/136/138 140/160/138 141/162/138
f 119/139/139 118/137/139 133/161/139
f 126/138/140 141/162/140 142/164/140
f 120/141/141 119/139/141 134/163/141
f 120/141/144 135/165/144 136/168/144
f 132/159/145 147/185/145 148/169/145
f 141/162/146 140/160/146 155/170/146
f 134/163/147 133/161/147 148/169/147
f 141/162/148 156/171/148 157/173/148
f 135/165/149 134/163/149 149/172/149
f 135/165/152 150/174/152 151/178/152
f 128/152/153 143/176/153 144/179/153
f 136/168/154 151/178/154 152/180/154
f 129/153/155 144/179/155 145/181/155
f 138/156/156 137/154/156 152/180/156
f 130/155/157 145/181/157 146/183/157
f 138/156/158 153/182/158 154/184/158
f 132/159/159 131/157/159 146/183/159
f 140/160/160 139/158/160 154/184/160
f 151/178/161 166/201/161 167/186/161
f 144/179/162 159/202/162 160/187/162
f 153/182/163 152/180/163 167/186/163
f 145/181/164 160/187/164 161/189/164
f 153/182/165 168/188/165 169/190/165
f 147/185/166 146/183/166 161/189/166
f 155/170/167 154/184/167 169/190/167
f 147/185/168 162/191/168 163/193/168
f 156/171/169 155/170/169 170/192/169
f 149/172/170 148/169/170 163/193/170
f 157/173/171 156/171/171 171/194/171
f 150/174/172 149/172/172 164/195/172
f 150/174/175 165/197/175 166/201/175
f 143/176/176 158/199/176 159/202/176
f 171/194/177 170/192/177 185/203/177
f 164/195/178 163/193/178 178/205/178
f 172/196/179 171/194/179 186/204/179
f 165/197/180 164/195/180 179/206/180
f 165/197/183 180/208/183 181/212/183
f 158/199/184 173/210/184 174/213/184
f 166/201/515 181/212/515 182/214/515
f 159/202/186 174/213/186 175/215/186
f 168/188/187 167/186/187 182/214/187
f 160/187/188 175/215/188 176/217/188
f 168/188/189 183/216/189 184/218/189
f 162/191/190 161/189/190 176/217/190
f 170/192/191 169/190/191 184/218/191
f 162/191/192 177/219/192 178/205/192
f 183/216/193 182/214/193 197/220/193
f 175/215/194 190/236/194 191/222/194
f 183/216/195 198/221/195 199/223/195
f 177/219/196 176/217/196 191/222/196
f 185/203/197 184/218/197 199/223/197
f 177/219/198 192/224/198 193/226/198
f 185/203/199 200/225/199 201/227/199
f 179/206/200 178/205/200 193/226/200
f 186/204/201 201/227/201 202/229/201
f 180/208/202 179/206/202 194/228/202
f 180/208/205 195/230/205 196/234/205
f 174/213/206 173/210/206 188/232/206
f 181/212/207 196/234/207 197/220/207
f 175/215/208 174/213/208 189/235/208
f 202/229/209 201/227/209 216/237/209
f 195/230/210 194/228/210 209/239/210
f 195/230/213 210/240/213 211/244/213
f 188/232/214 203/242/214 204/245/214
f 196/234/215 211/244/215 212/246/215
f 189/235/216 204/245/216 205/247/216
f 198/221/217 197/220/217 212/246/217
f 190/236/218 205/247/218 206/249/218
f 198/221/219 213/248/219 214/250/219
f 192/224/220 191/222/220 206/249/220
f 200/225/221 199/223/221 214/250/221
f 192/224/222 207/251/222 208/253/222
f 201/227/223 200/225/223 215/252/223
f 194/228/224 193/226/224 208/253/224
f 205/247/225 220/269/225 221/254/225
f 213/248/226 228/270/226 229/255/226
f 207/251/227 206/249/227 221/254/227
f 215/252/228 214/250/228 229/255/228
f 207/251/229 222/256/229 223/258/229
f 216/237/230 215/252/230 230/257/230
f 209/239/231 208/253/231 223/258/231
f 217/238/232 216/237/232 231/259/232
f 210/240/233 209/239/233 224/260/233
f 210/240/236 225/262/236 226/266/236
f 203/242/237 218/264/237 219/267/237
f 211/244/238 226/266/238 227/268/238
f 204/245/239 219/267/239 220/269/239
f 213/248/240 212/246/240 227/268/240
f 225/262/241 224/260/241 239/271/241
f 225/262/244 240/272/244 241/277/244
f 219/267/245 218/264/245 233/274/245
f 226/266/246 241/277/246 242/279/246
f 219/267/247 234/278/247 235/280/247
f 228/270/248 227/268/248 242/279/248
f 220/269/249 235/280/249 236/282/249
f 228/270/250 243/281/250 244/283/250
f 222/256/251 221/254/251 236/282/251
f 230/257/252 229/255/252 244/283/252
f 222/256/253 237/284/253 238/286/253
f 231/259/254 230/257/254 245/285/254
f 224/260/255 223/258/255 238/286/255
f 231/259/256 246/287/256 247/276/256
f 243/281/257 258/304/257 259/288/257
f 237/284/258 236/282/258 251/289/258
f 245/285/259 244/283/259 259/288/259
f 237/284/260 252/290/260 253/292/260
f 245/285/261 260/291/261 261/293/261
f 239/271/262 238/286/262 253/292/262
f 246/287/263 261/293/263 262/295/263
f 240/272/264 239/271/264 254/294/264
f 240/272/267 255/296/267 256/300/267
f 234/278/268 233/274/268 248/298/268
f 241/277/269 256/300/269 257/302/269
f 235/280/270 234/278/270 249/301/270
f 243/281/271 242/279/271 257/302/271
f 235/280/272 250/303/272 251/289/272
f 255/296/275 270/321/275 271/309/275
f 249/301/276 248/298/276 263/306/276
f 256/300/277 271/309/277 272/311/277
f 249/301/278 264/310/278 265/312/278
f 258/304/279 257/302/279 272/311/279
f 250/303/280 265/312/280 266/314/280
f 258/304/281 273/313/281 274/315/281
f 252/290/282 251/289/282 266/314/282
f 260/291/283 259/288/283 274/315/283
f 252/290/284 267/316/284 268/318/284
f 261/293/285 260/291/285 275/317/285
f 254/294/286 253/292/286 268/318/286
f 261/293/287 276/319/287 277/308/287
f 255/296/288 254/294/288 269/320/288
f 267/316/289 266/314/289 281/322/289
f 275/317/290 274/315/290 289/324/290
f 267/316/291 282/323/291 283/326/291
f 275/317/292 290/325/292 291/327/292
f 269/320/516 268/318/516 283/326/516
f 276/319/294 291/327/294 292/329/294
f 270/321/295 269/320/295 284/328/295
f 270/321/298 285/330/298 286/334/298
f 263/306/299 278/332/299 279/335/299
f 271/309/300 286/334/300 287/336/300
f 264/310/301 279/335/301 280/337/301
f 273/313/302 272/311/302 287/336/302
f 265/312/303 280/337/303 281/322/303
f 273/313/304 288/338/304 289/324/304
f 285/330/305 300/352/305 301/339/305
f 278/332/306 293/354/306 294/340/306
f 286/334/307 301/339/307 302/341/307
f 280/337/308 279/335/308 294/340/308
f 288/338/309 287/336/309 302/341/309
f 280/337/310 295/342/310 296/344/310
f 288/338/311 303/343/311 304/345/311
f 282/323/312 281/322/312 296/344/312
f 290/325/313 289/324/313 304/345/313
f 282/323/314 297/346/314 298/348/314
f 290/325/315 305/347/315 306/349/315
f 284/328/316 283/326/316 298/348/316
f 292/329/317 291/327/317 306/349/317
f 285/330/318 284/328/318 299/350/318
f 305/347/321 304/345/321 320/356/321
f 297/346/322 313/372/322 314/358/322
f 305/347/323 321/357/323 322/359/323
f 299/350/324 298/348/324 314/358/324
f 306/349/325 322/359/325 323/361/325
f 300/352/326 299/350/326 315/360/326
f 300/352/329 316/362/329 317/366/329
f 294/340/330 293/354/330 309/364/330
f 301/339/331 317/366/331 318/368/331
f 295/342/332 294/340/332 310/367/332
f 303/343/333 302/341/333 318/368/333
f 295/342/334 311/369/334 312/371/334
f 303/343/335 319/370/335 320/356/335
f 297/346/336 296/344/336 312/371/336
f 317/366/337 332/388/337 333/373/337
f 310/367/338 325/389/338 326/374/338
f 319/370/339 318/368/339 333/373/339
f 311/369/340 326/374/340 327/376/340
f 319/370/341 334/375/341 335/377/341
f 313/372/342 312/371/342 327/376/342
f 321/357/343 320/356/343 335/377/343
f 313/372/344 328/378/344 329/380/344
f 321/357/345 336/379/345 337/381/345
f 315/360/346 314/358/346 329/380/346
f 323/361/347 322/359/347 337/381/347
f 316/362/348 315/360/348 330/382/348
f 316/362/351 331/384/351 332/388/351
f 309/364/352 324/386/352 325/389/352
f 336/379/353 351/406/353 352/390/353
f 330/382/354 329/380/354 344/391/354
f 338/383/355 337/381/355 352/390/355
f 331/384/356 330/382/356 345/392/356
f 331/384/359 346/394/359 347/398/359
f 324/386/360 339/396/360 340/399/360
f 332/388/361 347/398/361 348/400/361
f 326/374/362 325/389/362 340/399/362
f 334/375/363 333/373/363 348/400/363
f 326/374/364 341/401/364 342/403/364
f 334/375/365 349/402/365 350/404/365
f 328/378/366 327/376/366 342/403/366
f 336/379/367 335/377/367 350/404/367
f 328/378/368 343/405/368 344/391/368
f 341/401/369 340/399/369 355/407/369
f 349/402/370 348/400/370 363/409/370
f 341/401/371 356/408/371 357/411/371
f 349/402/372 364/410/372 365/412/372
f 343/405/373 342/403/373 357/411/373
f 351/406/374 350/404/374 365/412/374
f 343/405/375 358/413/375 359/415/375
f 351/406/376 366/414/376 367/416/376
f 345/392/377 344/391/377 359/415/377
f 353/393/378 352/390/378 367/416/378
f 346/394/379 345/392/379 360/417/379
f 346/394/382 361/419/382 362/423/382
f 339/396/517 354/421/517 355/407/517
f 347/398/384 362/423/384 363/409/384
f 360/424/385 359/454/385 374/425/385
f 367/427/386 382/455/386 383/428/386
f 361/430/387 360/424/387 375/426/387
f 361/430/390 376/431/390 377/436/390
f 355/438/391 354/432/391 369/434/391
f 362/437/392 377/436/392 378/440/392
f 356/442/393 355/438/393 370/439/393
f 364/444/394 363/441/394 378/440/394
f 356/442/395 371/443/395 372/446/395
f 364/444/396 379/445/396 380/448/396
f 358/450/397 357/447/397 372/446/397
f 366/452/398 365/449/398 380/448/398
f 358/450/399 373/451/399 374/425/399
f 366/452/400 381/453/400 382/455/400
f 379/445/401 378/440/401 393/456/401
f 371/443/402 386/472/402 387/458/402
f 379/445/403 394/457/403 395/459/403
f 373/451/404 372/446/404 387/458/404
f 381/453/405 380/448/405 395/459/405
f 373/451/406 388/460/406 389/462/406
f 381/453/407 396/461/407 397/463/407
f 375/426/408 374/425/408 389/462/408
f 382/455/409 397/463/409 398/465/409
f 376/431/410 375/426/410 390/464/410
f 376/431/413 391/466/413 392/470/413
f 370/439/414 369/434/414 384/468/414
f 377/436/415 392/470/415 393/456/415
f 371/443/416 370/439/416 385/471/416
f 398/465/417 397/463/417 412/473/417
f 391/466/418 390/464/418 405/475/418
f 391/466/421 406/476/421 407/480/421
f 384/468/422 399/478/422 400/481/422
f 392/470/423 407/480/423 408/482/423
f 386/472/424 385/471/424 400/481/424
f 394/457/425 393/456/425 408/482/425
f 386/472/426 401/483/426 402/485/426
f 394/457/427 409/484/427 410/486/427
f 388/460/428 387/458/428 402/485/428
f 396/461/429 395/459/429 410/486/429
f 388/460/430 403/487/430 404/489/430
f 396/461/431 411/488/431 412/473/431
f 390/464/432 389/462/432 404/489/432
f 401/483/433 416/505/433 417/490/433
f 409/484/434 424/506/434 425/491/434
f 403/487/435 402/485/435 417/490/435
f 411/488/436 410/486/436 425/491/436
f 403/487/437 418/492/437 419/494/437
f 411/488/438 426/493/438 427/495/438
f 405/475/439 404/489/439 419/494/439
f 412/473/440 427/495/440 428/497/440
f 406/476/441 405/475/441 420/496/441
f 406/476/444 421/498/444 422/502/444
f 399/478/445 414/500/445 415/503/445
f 407/480/446 422/502/446 423/504/446
f 401/483/447 400/481/447 415/503/447
f 409/484/448 408/482/448 423/504/448
f 421/498/449 420/496/449 435/507/449
f 421/498/452 436/508/452 437/513/452
f 414/500/453 429/510/453 430/514/453
f 422/502/454 437/513/454 438/515/454
f 416/505/455 415/503/455 430/514/455
f 424/506/456 423/504/456 438/515/456
f 416/505/457 431/516/457 432/518/457
f 424/506/458 439/517/458 440/519/458
f 418/492/459 417/490/459 432/518/459
f 426/493/460 425/491/460 440/519/460
f 418/492/461 433/520/461 434/522/461
f 426/493/462 441/521/462 442/523/462
f 420/496/463 419/494/463 434/522/463
f 428/497/464 427/495/464 442/523/464
f 439/517/465 454/540/465 455/524/465
f 433/520/466 432/518/466 447/525/466
f 441/521/467 440/519/467 455/524/467
f 433/520/468 448/526/468 449/528/468
f 441/521/469 456/527/469 457/529/469
f 435/507/470 434/522/470 449/528/470
f 442/523/471 457/529/471 458/531/471
f 436/508/472 435/507/472 450/530/472
f 436/508/475 451/532/475 452/536/475
f 430/514/476 429/510/476 444/534/476
f 437/513/518 452/536/518 453/538/518
f 431/516/478 430/514/478 445/537/478
f 439/517/479 438/515/479 453/538/479
f 431/516/480 446/539/480 447/525/480
f 451/532/482 466/555/482 467/543/482
f 444/534/483 459/557/483 460/544/483
f 452/536/484 467/543/484 468/545/484
f 446/539/485 445/537/485 460/544/485
f 454/540/486 453/538/486 468/545/486
f 446/539/487 461/546/487 462/548/487
f 454/540/488 469/547/488 470/549/488
f 448/526/489 447/525/489 462/548/489
f 456/527/490 455/524/490 470/549/490
f 448/526/491 463/550/491 464/552/491
f 456/527/492 471/551/492 472/553/492
f 450/530/493 449/528/493 464/552/493
f 458/531/494 457/529/494 472/553/494
f 451/532/495 450/530/495 465/554/495
f 471/551/497 470/549/497 479/4/497
f 464/552/498 463/550/498 2/3/498
f 471/551/499 480/6/499 481/10/499
f 465/554/500 464/552/500 477/7/500
f 472/553/501 481/10/501 482/14/501
f 466/555/502 465/554/502 3/11/502
f 466/555/505 4/16/505 5/22/505
f 459/557/506 474/17/506 475/23/506
f 467/543/507 5/22/507 478/26/507
f 461/546/508 460/544/508 475/23/508
f 468/545/509 478/26/509 6/30/509
f 462/548/510 461/546/510 1/27/510
f 469/547/511 6/30/511 479/4/511
f 463/550/512 462/548/512 476/1/512
