# Blender 4.1.1
# www.blender.org
mtllib stage.mtl
o 立方体
v 49.295677 -49.874924 87.922867
v 49.295677 49.874924 87.922867
v -126.550026 -49.874924 87.922882
v -126.550026 49.874924 87.922882
v -126.550034 49.874924 -51.984203
v -126.550034 -49.874924 -51.984203
v 49.295670 49.874924 -51.984211
v 49.295670 -49.874924 -51.984211
v -57.582352 -49.874924 2.681443
v -75.809090 -49.874924 -2.847578
v -92.606941 -49.874924 -11.826211
v -107.330383 -49.874924 -23.909426
v -119.413605 -49.874924 -38.632870
v -38.627182 -49.874924 4.548368
v -19.672010 -49.874924 2.681441
v 15.352577 -49.874924 -11.826215
v 42.159241 -49.874924 -38.632877
v 30.076019 -49.874924 -23.909433
v -1.445274 -49.874924 -2.847582
v -38.627182 49.874924 4.548368
v -57.582352 49.874924 2.681443
v -92.606941 49.874924 -11.826211
v -119.413605 49.874924 -38.632870
v -107.330383 49.874924 -23.909426
v -75.809090 49.874924 -2.847578
v -19.672010 49.874924 2.681441
v -1.445274 49.874924 -2.847582
v 15.352577 49.874924 -11.826215
v 30.076019 49.874924 -23.909433
v 42.159241 49.874924 -38.632877
v -37.627182 0.200313 -37.627182
v -37.627182 -0.200313 -37.627182
v -39.627182 0.200313 -37.627182
v -39.627182 -0.200313 -37.627182
v -37.627182 0.200313 -39.627182
v -37.627182 -0.200313 -39.627182
v -39.627182 0.200313 -39.627182
v -39.627182 -0.200313 -39.627182
v 37.845627 -0.179385 7.605731
v 37.845627 -0.254203 7.605731
v -115.099991 -0.179385 7.605738
v -115.099991 -0.254203 7.605738
v 37.845627 -0.179385 -84.860100
v 37.845627 -0.254203 -84.860100
v -115.099991 -0.179385 -84.860100
v -115.099991 -0.254203 -84.860100
vn -0.0000 -0.0000 1.0000
vn -1.0000 -0.0000 -0.0000
vn 1.0000 -0.0000 -0.0000
vn -0.0000 -1.0000 -0.0000
vn -0.0000 1.0000 -0.0000
vn -0.8819 -0.0000 -0.4714
vn -0.7730 -0.0000 -0.6344
vn -0.6344 -0.0000 -0.7730
vn -0.4714 -0.0000 -0.8819
vn -0.2903 -0.0000 -0.9569
vn -0.0980 -0.0000 -0.9952
vn 0.0980 -0.0000 -0.9952
vn 0.2903 -0.0000 -0.9569
vn 0.4714 -0.0000 -0.8819
vn 0.6344 -0.0000 -0.7730
vn 0.7730 -0.0000 -0.6344
vn 0.8819 -0.0000 -0.4714
vn -0.0000 -0.0000 -1.0000
vt 0.717620 0.010304
vt 0.401557 0.326367
vt 0.401557 0.010304
vt 0.717620 0.326367
vt 0.401557 0.577835
vt 0.401557 0.849910
vt 0.717620 0.598443
vt 0.717620 0.849910
vt 0.738228 0.010304
vt 0.891441 0.134266
vt 0.888085 0.168336
vt 0.989696 0.663038
vt 0.836484 0.539077
vt 0.839839 0.505007
vt 0.305405 0.525106
vt 0.327133 0.920914
vt 0.327133 0.525106
vt 0.278068 0.525106
vt 0.305405 0.920914
vt 0.250731 0.920914
vt 0.278068 0.920914
vt 0.250731 0.525106
vt 0.223393 0.920914
vt 0.223393 0.525106
vt 0.196056 0.920914
vt 0.196056 0.525106
vt 0.168719 0.920914
vt 0.168719 0.525106
vt 0.141381 0.920914
vt 0.141381 0.525106
vt 0.114044 0.920914
vt 0.114044 0.525106
vt 0.086707 0.920914
vt 0.086707 0.525106
vt 0.059370 0.920914
vt 0.059370 0.525106
vt 0.032032 0.920914
vt 0.010304 0.920914
vt 0.032032 0.525106
vt 0.010304 0.525106
vt 0.353163 0.525106
vt 0.350452 0.527817
vt 0.350452 0.525106
vt 0.353163 0.527817
vt 0.350452 0.530528
vt 0.353163 0.530528
vt 0.350452 0.533239
vt 0.353163 0.533239
vt 0.350452 0.535950
vt 0.347741 0.533239
vt 0.347741 0.530528
vt 0.355874 0.530528
vt 0.257401 0.010304
vt 0.133852 0.133852
vt 0.133852 0.010304
vt 0.257401 0.133852
vt 0.133852 0.257401
vt 0.257401 0.257401
vt 0.133852 0.380949
vt 0.257401 0.380949
vt 0.133852 0.504498
vt 0.010304 0.380949
vt 0.010304 0.257401
vt 0.380949 0.257401
vt 0.717620 0.577835
vt 0.401557 0.598443
vt 0.965698 0.313540
vt 0.989696 0.326367
vt 0.738228 0.326367
vt 0.989696 0.010304
vt 0.965698 0.023131
vt 0.939235 0.044849
vt 0.939235 0.291822
vt 0.917516 0.265358
vt 0.917517 0.071313
vt 0.901378 0.101505
vt 0.901378 0.235166
vt 0.891441 0.202405
vt 0.762226 0.359802
vt 0.738228 0.346975
vt 0.989696 0.346975
vt 0.738228 0.663038
vt 0.762226 0.650212
vt 0.788690 0.628493
vt 0.788690 0.381520
vt 0.810408 0.407984
vt 0.810408 0.602030
vt 0.826546 0.571837
vt 0.826546 0.438176
vt 0.836484 0.470937
vt 0.353163 0.535950
vt 0.355874 0.533239
vt 0.257401 0.504498
vt 0.380949 0.380949
s 0
usemtl マテリアル.002
f 2/1/1 3/2/1 1/3/1
f 4/4/2 6/5/2 3/2/2
f 1/6/3 7/7/3 2/8/3
f 3/9/4 9/10/4 14/11/4
f 2/12/5 26/13/5 20/14/5
f 17/15/6 7/16/6 8/17/6
f 18/18/7 30/19/7 17/15/7
f 18/18/8 28/20/8 29/21/8
f 16/22/9 27/23/9 28/20/9
f 19/24/10 26/25/10 27/23/10
f 15/26/11 20/27/11 26/25/11
f 14/28/12 21/29/12 20/27/12
f 9/30/13 25/31/13 21/29/13
f 10/32/14 22/33/14 25/31/14
f 11/34/15 24/35/15 22/33/15
f 12/36/16 23/37/16 24/35/16
f 5/38/17 13/39/17 6/40/17
f 32/41/18 33/42/18 31/43/18
f 34/44/3 37/45/3 33/42/3
f 38/46/1 35/47/1 37/45/1
f 36/48/2 31/49/2 35/47/2
f 37/45/4 31/50/4 33/51/4
f 34/52/5 36/48/5 38/46/5
f 40/53/18 41/54/18 39/55/18
f 42/56/3 45/57/3 41/54/3
f 46/58/1 43/59/1 45/57/1
f 44/60/2 39/61/2 43/59/2
f 45/57/4 39/62/4 41/63/4
f 42/64/5 44/60/5 46/58/5
f 2/1/1 4/4/1 3/2/1
f 4/4/2 5/65/2 6/5/2
f 1/6/3 8/66/3 7/7/3
f 17/67/4 8/68/4 1/69/4
f 3/9/4 6/70/4 13/71/4
f 3/9/4 13/71/4 12/72/4
f 18/73/4 17/67/4 1/69/4
f 16/74/4 18/73/4 1/69/4
f 3/9/4 12/72/4 11/75/4
f 3/9/4 11/75/4 10/76/4
f 16/74/4 1/69/4 19/77/4
f 1/69/4 3/9/4 14/11/4
f 19/77/4 1/69/4 15/78/4
f 15/78/4 1/69/4 14/11/4
f 3/9/4 10/76/4 9/10/4
f 23/79/5 5/80/5 4/81/5
f 2/12/5 7/82/5 30/83/5
f 2/12/5 30/83/5 29/84/5
f 24/85/5 23/79/5 4/81/5
f 22/86/5 24/85/5 4/81/5
f 2/12/5 29/84/5 28/87/5
f 2/12/5 28/87/5 27/88/5
f 22/86/5 4/81/5 25/89/5
f 4/81/5 2/12/5 20/14/5
f 25/89/5 4/81/5 21/90/5
f 21/90/5 4/81/5 20/14/5
f 2/12/5 27/88/5 26/13/5
f 17/15/6 30/19/6 7/16/6
f 18/18/7 29/21/7 30/19/7
f 18/18/8 16/22/8 28/20/8
f 16/22/9 19/24/9 27/23/9
f 19/24/10 15/26/10 26/25/10
f 15/26/11 14/28/11 20/27/11
f 14/28/12 9/30/12 21/29/12
f 9/30/13 10/32/13 25/31/13
f 10/32/14 11/34/14 22/33/14
f 11/34/15 12/36/15 24/35/15
f 12/36/16 13/39/16 23/37/16
f 5/38/17 23/37/17 13/39/17
f 32/41/18 34/44/18 33/42/18
f 34/44/3 38/46/3 37/45/3
f 38/46/1 36/48/1 35/47/1
f 36/48/2 32/91/2 31/49/2
f 37/45/4 35/47/4 31/50/4
f 34/52/5 32/92/5 36/48/5
f 40/53/18 42/56/18 41/54/18
f 42/56/3 46/58/3 45/57/3
f 46/58/1 44/60/1 43/59/1
f 44/60/2 40/93/2 39/61/2
f 45/57/4 43/59/4 39/62/4
f 42/64/5 40/94/5 44/60/5
